<svg width="515" height="123" viewBox="0 0 515 123" fill="none" xmlns="http://www.w3.org/2000/svg">
<rect x="10.4932" y="13" width="494.014" height="97" stroke="#686665" stroke-width="2"/>
<path d="M114.048 42.512L101.476 83H94.6722L85.8242 55.336C85.5815 54.664 85.3575 53.8427 85.1522 52.872C85.0402 53.3387 84.9282 53.7773 84.8162 54.188C84.7042 54.5987 84.5829 54.9813 84.4522 55.336L75.5202 83H68.6882L56.1442 42.512H62.4442C63.0975 42.512 63.6389 42.6707 64.0682 42.988C64.5162 43.2867 64.8149 43.6973 64.9642 44.22L71.8522 68.44C72.0015 69.0373 72.1415 69.6907 72.2722 70.4C72.4215 71.0907 72.5709 71.8187 72.7202 72.584C72.8695 71.8 73.0282 71.0627 73.1962 70.372C73.3829 69.6813 73.5789 69.0373 73.7842 68.44L81.7362 44.22C81.8855 43.7907 82.1749 43.3987 82.6042 43.044C83.0522 42.6893 83.5935 42.512 84.2282 42.512H86.4402C87.0935 42.512 87.6255 42.6707 88.0362 42.988C88.4469 43.3053 88.7549 43.716 88.9602 44.22L96.8842 68.44C97.2762 69.5973 97.6309 70.932 97.9482 72.444C98.1909 70.9693 98.4615 69.6347 98.7602 68.44L105.648 44.22C105.76 43.7533 106.04 43.352 106.488 43.016C106.955 42.68 107.506 42.512 108.14 42.512H114.048ZM133.605 65.332C133.605 64.436 133.475 63.596 133.213 62.812C132.971 62.0093 132.597 61.3093 132.093 60.712C131.589 60.1147 130.945 59.648 130.161 59.312C129.396 58.9573 128.5 58.78 127.473 58.78C125.476 58.78 123.899 59.3493 122.741 60.488C121.603 61.6267 120.875 63.2413 120.557 65.332H133.605ZM120.417 69.504C120.529 70.9787 120.791 72.2573 121.201 73.34C121.612 74.404 122.153 75.2907 122.825 76C123.497 76.6907 124.291 77.2133 125.205 77.568C126.139 77.904 127.165 78.072 128.285 78.072C129.405 78.072 130.367 77.9413 131.169 77.68C131.991 77.4187 132.7 77.1293 133.297 76.812C133.913 76.4947 134.445 76.2053 134.893 75.944C135.36 75.6827 135.808 75.552 136.237 75.552C136.816 75.552 137.245 75.7667 137.525 76.196L139.513 78.716C138.748 79.612 137.889 80.368 136.937 80.984C135.985 81.5813 134.987 82.0667 133.941 82.44C132.915 82.7947 131.86 83.0467 130.777 83.196C129.713 83.3453 128.677 83.42 127.669 83.42C125.672 83.42 123.815 83.0933 122.097 82.44C120.38 81.768 118.887 80.788 117.617 79.5C116.348 78.1933 115.349 76.588 114.621 74.684C113.893 72.7613 113.529 70.54 113.529 68.02C113.529 66.06 113.847 64.2213 114.481 62.504C115.116 60.768 116.021 59.2653 117.197 57.996C118.392 56.708 119.839 55.6907 121.537 54.944C123.255 54.1973 125.187 53.824 127.333 53.824C129.144 53.824 130.815 54.1133 132.345 54.692C133.876 55.2707 135.192 56.12 136.293 57.24C137.395 58.3413 138.253 59.704 138.869 61.328C139.504 62.9333 139.821 64.772 139.821 66.844C139.821 67.8893 139.709 68.5987 139.485 68.972C139.261 69.3267 138.832 69.504 138.197 69.504H120.417ZM152.487 75.552C153.271 76.504 154.121 77.176 155.035 77.568C155.969 77.96 156.949 78.156 157.975 78.156C159.039 78.156 159.991 77.9693 160.831 77.596C161.69 77.204 162.418 76.6067 163.015 75.804C163.613 74.9827 164.07 73.9467 164.387 72.696C164.705 71.4267 164.863 69.9147 164.863 68.16C164.863 65.0053 164.341 62.728 163.295 61.328C162.25 59.9093 160.747 59.2 158.787 59.2C157.462 59.2 156.305 59.508 155.315 60.124C154.326 60.7213 153.383 61.5707 152.487 62.672V75.552ZM152.487 57.8C153.645 56.5867 154.923 55.6253 156.323 54.916C157.742 54.188 159.357 53.824 161.167 53.824C162.829 53.824 164.322 54.1507 165.647 54.804C166.991 55.4573 168.13 56.4 169.063 57.632C170.015 58.8453 170.743 60.32 171.247 62.056C171.751 63.792 172.003 65.7427 172.003 67.908C172.003 70.2413 171.714 72.36 171.135 74.264C170.557 76.168 169.726 77.8013 168.643 79.164C167.579 80.508 166.291 81.5533 164.779 82.3C163.267 83.0467 161.587 83.42 159.739 83.42C158.843 83.42 158.031 83.3267 157.303 83.14C156.575 82.972 155.903 82.7293 155.287 82.412C154.671 82.0947 154.102 81.712 153.579 81.264C153.075 80.7973 152.59 80.284 152.123 79.724L151.815 81.656C151.703 82.1413 151.507 82.4867 151.227 82.692C150.966 82.8973 150.602 83 150.135 83H145.571V41.392H152.487V57.8ZM229.126 62.756C229.126 65.724 228.631 68.4493 227.642 70.932C226.653 73.4147 225.262 75.552 223.47 77.344C221.678 79.136 219.522 80.5267 217.002 81.516C214.482 82.5053 211.682 83 208.602 83H193.174V42.512H208.602C211.682 42.512 214.482 43.016 217.002 44.024C219.522 45.0133 221.678 46.404 223.47 48.196C225.262 49.9693 226.653 52.0973 227.642 54.58C228.631 57.0627 229.126 59.788 229.126 62.756ZM221.398 62.756C221.398 60.5347 221.099 58.5467 220.502 56.792C219.923 55.0187 219.074 53.5253 217.954 52.312C216.853 51.08 215.509 50.1373 213.922 49.484C212.354 48.8307 210.581 48.504 208.602 48.504H200.734V77.008H208.602C210.581 77.008 212.354 76.6813 213.922 76.028C215.509 75.3747 216.853 74.4413 217.954 73.228C219.074 71.996 219.923 70.5027 220.502 68.748C221.099 66.9747 221.398 64.9773 221.398 62.756ZM253.369 65.332C253.369 64.436 253.238 63.596 252.977 62.812C252.734 62.0093 252.361 61.3093 251.857 60.712C251.353 60.1147 250.709 59.648 249.925 59.312C249.159 58.9573 248.263 58.78 247.237 58.78C245.239 58.78 243.662 59.3493 242.505 60.488C241.366 61.6267 240.638 63.2413 240.321 65.332H253.369ZM240.181 69.504C240.293 70.9787 240.554 72.2573 240.965 73.34C241.375 74.404 241.917 75.2907 242.589 76C243.261 76.6907 244.054 77.2133 244.969 77.568C245.902 77.904 246.929 78.072 248.049 78.072C249.169 78.072 250.13 77.9413 250.933 77.68C251.754 77.4187 252.463 77.1293 253.061 76.812C253.677 76.4947 254.209 76.2053 254.657 75.944C255.123 75.6827 255.571 75.552 256.001 75.552C256.579 75.552 257.009 75.7667 257.289 76.196L259.277 78.716C258.511 79.612 257.653 80.368 256.701 80.984C255.749 81.5813 254.75 82.0667 253.705 82.44C252.678 82.7947 251.623 83.0467 250.541 83.196C249.477 83.3453 248.441 83.42 247.433 83.42C245.435 83.42 243.578 83.0933 241.861 82.44C240.143 81.768 238.65 80.788 237.381 79.5C236.111 78.1933 235.113 76.588 234.385 74.684C233.657 72.7613 233.293 70.54 233.293 68.02C233.293 66.06 233.61 64.2213 234.245 62.504C234.879 60.768 235.785 59.2653 236.961 57.996C238.155 56.708 239.602 55.6907 241.301 54.944C243.018 54.1973 244.95 53.824 247.097 53.824C248.907 53.824 250.578 54.1133 252.109 54.692C253.639 55.2707 254.955 56.12 256.057 57.24C257.158 58.3413 258.017 59.704 258.633 61.328C259.267 62.9333 259.585 64.772 259.585 66.844C259.585 67.8893 259.473 68.5987 259.249 68.972C259.025 69.3267 258.595 69.504 257.961 69.504H240.181ZM290.524 54.272L279.128 83H272.856L261.46 54.272H267.172C267.695 54.272 268.124 54.3933 268.46 54.636C268.815 54.8787 269.048 55.1867 269.16 55.56L274.704 70.904C275.003 71.8 275.264 72.6773 275.488 73.536C275.712 74.3947 275.908 75.2533 276.076 76.112C276.263 75.2533 276.468 74.3947 276.692 73.536C276.916 72.6773 277.187 71.8 277.504 70.904L283.16 55.56C283.291 55.1867 283.524 54.8787 283.86 54.636C284.196 54.3933 284.597 54.272 285.064 54.272H290.524ZM312.403 65.332C312.403 64.436 312.272 63.596 312.011 62.812C311.768 62.0093 311.395 61.3093 310.891 60.712C310.387 60.1147 309.743 59.648 308.959 59.312C308.194 58.9573 307.298 58.78 306.271 58.78C304.274 58.78 302.696 59.3493 301.539 60.488C300.4 61.6267 299.672 63.2413 299.355 65.332H312.403ZM299.215 69.504C299.327 70.9787 299.588 72.2573 299.999 73.34C300.41 74.404 300.951 75.2907 301.623 76C302.295 76.6907 303.088 77.2133 304.003 77.568C304.936 77.904 305.963 78.072 307.083 78.072C308.203 78.072 309.164 77.9413 309.967 77.68C310.788 77.4187 311.498 77.1293 312.095 76.812C312.711 76.4947 313.243 76.2053 313.691 75.944C314.158 75.6827 314.606 75.552 315.035 75.552C315.614 75.552 316.043 75.7667 316.323 76.196L318.311 78.716C317.546 79.612 316.687 80.368 315.735 80.984C314.783 81.5813 313.784 82.0667 312.739 82.44C311.712 82.7947 310.658 83.0467 309.575 83.196C308.511 83.3453 307.475 83.42 306.467 83.42C304.47 83.42 302.612 83.0933 300.895 82.44C299.178 81.768 297.684 80.788 296.415 79.5C295.146 78.1933 294.147 76.588 293.419 74.684C292.691 72.7613 292.327 70.54 292.327 68.02C292.327 66.06 292.644 64.2213 293.279 62.504C293.914 60.768 294.819 59.2653 295.995 57.996C297.19 56.708 298.636 55.6907 300.335 54.944C302.052 54.1973 303.984 53.824 306.131 53.824C307.942 53.824 309.612 54.1133 311.143 54.692C312.674 55.2707 313.99 56.12 315.091 57.24C316.192 58.3413 317.051 59.704 317.667 61.328C318.302 62.9333 318.619 64.772 318.619 66.844C318.619 67.8893 318.507 68.5987 318.283 68.972C318.059 69.3267 317.63 69.504 316.995 69.504H299.215ZM331.369 41.392V83H324.453V41.392H331.369ZM351.532 53.824C353.66 53.824 355.592 54.1693 357.328 54.86C359.082 55.5507 360.576 56.5307 361.808 57.8C363.058 59.0693 364.02 60.6187 364.692 62.448C365.364 64.2773 365.7 66.3213 365.7 68.58C365.7 70.8573 365.364 72.9107 364.692 74.74C364.02 76.5693 363.058 78.128 361.808 79.416C360.576 80.704 359.082 81.6933 357.328 82.384C355.592 83.0747 353.66 83.42 351.532 83.42C349.385 83.42 347.434 83.0747 345.68 82.384C343.925 81.6933 342.422 80.704 341.172 79.416C339.94 78.128 338.978 76.5693 338.288 74.74C337.616 72.9107 337.28 70.8573 337.28 68.58C337.28 66.3213 337.616 64.2773 338.288 62.448C338.978 60.6187 339.94 59.0693 341.172 57.8C342.422 56.5307 343.925 55.5507 345.68 54.86C347.434 54.1693 349.385 53.824 351.532 53.824ZM351.532 78.1C353.921 78.1 355.685 77.2973 356.824 75.692C357.981 74.0867 358.56 71.7347 358.56 68.636C358.56 65.5373 357.981 63.176 356.824 61.552C355.685 59.928 353.921 59.116 351.532 59.116C349.105 59.116 347.304 59.9373 346.128 61.58C344.97 63.204 344.392 65.556 344.392 68.636C344.392 71.716 344.97 74.068 346.128 75.692C347.304 77.2973 349.105 78.1 351.532 78.1ZM378.452 75.552C379.236 76.504 380.085 77.176 381 77.568C381.933 77.96 382.941 78.156 384.024 78.156C385.069 78.156 386.012 77.96 386.852 77.568C387.692 77.176 388.401 76.5787 388.98 75.776C389.577 74.9733 390.034 73.9653 390.352 72.752C390.669 71.52 390.828 70.0733 390.828 68.412C390.828 66.732 390.688 65.3133 390.408 64.156C390.146 62.98 389.764 62.028 389.26 61.3C388.756 60.572 388.14 60.04 387.412 59.704C386.702 59.368 385.89 59.2 384.976 59.2C383.538 59.2 382.316 59.508 381.308 60.124C380.3 60.7213 379.348 61.5707 378.452 62.672V75.552ZM378.088 58.192C379.264 56.8667 380.598 55.7933 382.092 54.972C383.585 54.1507 385.34 53.74 387.356 53.74C388.924 53.74 390.352 54.0667 391.64 54.72C392.946 55.3733 394.066 56.3253 395 57.576C395.952 58.808 396.68 60.3387 397.184 62.168C397.706 63.9787 397.968 66.06 397.968 68.412C397.968 70.5587 397.678 72.5467 397.1 74.376C396.521 76.2053 395.69 77.792 394.608 79.136C393.544 80.48 392.246 81.5347 390.716 82.3C389.204 83.0467 387.505 83.42 385.62 83.42C384.014 83.42 382.642 83.1773 381.504 82.692C380.365 82.188 379.348 81.4973 378.452 80.62V92.38H371.536V54.272H375.764C376.66 54.272 377.248 54.692 377.528 55.532L378.088 58.192ZM422.432 65.332C422.432 64.436 422.301 63.596 422.04 62.812C421.797 62.0093 421.424 61.3093 420.92 60.712C420.416 60.1147 419.772 59.648 418.988 59.312C418.223 58.9573 417.327 58.78 416.3 58.78C414.303 58.78 412.725 59.3493 411.568 60.488C410.429 61.6267 409.701 63.2413 409.384 65.332H422.432ZM409.244 69.504C409.356 70.9787 409.617 72.2573 410.028 73.34C410.439 74.404 410.98 75.2907 411.652 76C412.324 76.6907 413.117 77.2133 414.032 77.568C414.965 77.904 415.992 78.072 417.112 78.072C418.232 78.072 419.193 77.9413 419.996 77.68C420.817 77.4187 421.527 77.1293 422.124 76.812C422.74 76.4947 423.272 76.2053 423.72 75.944C424.187 75.6827 424.635 75.552 425.064 75.552C425.643 75.552 426.072 75.7667 426.352 76.196L428.34 78.716C427.575 79.612 426.716 80.368 425.764 80.984C424.812 81.5813 423.813 82.0667 422.768 82.44C421.741 82.7947 420.687 83.0467 419.604 83.196C418.54 83.3453 417.504 83.42 416.496 83.42C414.499 83.42 412.641 83.0933 410.924 82.44C409.207 81.768 407.713 80.788 406.444 79.5C405.175 78.1933 404.176 76.588 403.448 74.684C402.72 72.7613 402.356 70.54 402.356 68.02C402.356 66.06 402.673 64.2213 403.308 62.504C403.943 60.768 404.848 59.2653 406.024 57.996C407.219 56.708 408.665 55.6907 410.364 54.944C412.081 54.1973 414.013 53.824 416.16 53.824C417.971 53.824 419.641 54.1133 421.172 54.692C422.703 55.2707 424.019 56.12 425.12 57.24C426.221 58.3413 427.08 59.704 427.696 61.328C428.331 62.9333 428.648 64.772 428.648 66.844C428.648 67.8893 428.536 68.5987 428.312 68.972C428.088 69.3267 427.659 69.504 427.024 69.504H409.244ZM440.922 59.256C441.818 57.5387 442.882 56.1947 444.114 55.224C445.346 54.2347 446.802 53.74 448.482 53.74C449.807 53.74 450.871 54.0293 451.674 54.608L451.226 59.788C451.133 60.124 450.993 60.3667 450.806 60.516C450.638 60.6467 450.405 60.712 450.106 60.712C449.826 60.712 449.406 60.6653 448.846 60.572C448.305 60.4787 447.773 60.432 447.25 60.432C446.485 60.432 445.803 60.544 445.206 60.768C444.609 60.992 444.067 61.3187 443.582 61.748C443.115 62.1587 442.695 62.6627 442.322 63.26C441.967 63.8573 441.631 64.5387 441.314 65.304V83H434.398V54.272H438.458C439.167 54.272 439.662 54.4027 439.942 54.664C440.222 54.9067 440.409 55.3547 440.502 56.008L440.922 59.256Z" fill="#333333"/>
<rect x="1" y="1" width="16.9862" height="22" fill="#E8E4F2" stroke="#686665" stroke-width="2"/>
<rect x="1" y="100" width="16.9862" height="22" fill="#E8E4F2" stroke="#686665" stroke-width="2"/>
<rect x="496.676" y="100" width="16.9862" height="22" fill="#E8E4F2" stroke="#686665" stroke-width="2"/>
<rect x="497.014" y="1" width="16.9862" height="22" fill="#E8E4F2" stroke="#686665" stroke-width="2"/>
</svg>
