<svg width="144" height="17" viewBox="0 0 144 17" fill="none" xmlns="http://www.w3.org/2000/svg">
<path d="M8.96542 16V15.2452C9.52026 15.2194 9.92671 15.1677 10.1848 15.0903C10.4428 15.0129 10.617 14.8581 10.7074 14.6258C10.7977 14.3935 10.8428 14.0452 10.8428 13.5806V4.71613C10.8428 4.23871 10.7977 3.89032 10.7074 3.67097C10.617 3.45161 10.4428 3.29677 10.1848 3.20645C9.92671 3.11613 9.52026 3.06452 8.96542 3.05161V2.29677C9.32671 2.30968 9.79768 2.32258 10.3783 2.33548C10.9719 2.34839 11.6235 2.35484 12.3332 2.35484C13.1203 2.35484 13.8106 2.34839 14.4041 2.33548C15.0106 2.32258 15.488 2.30968 15.8364 2.29677V3.05161C15.2299 3.06452 14.7783 3.11613 14.4816 3.20645C14.1977 3.28387 14.0106 3.43871 13.9203 3.67097C13.8299 3.89032 13.7848 4.23871 13.7848 4.71613V13.5806C13.7848 14.0452 13.8299 14.3935 13.9203 14.6258C14.0106 14.8452 14.1977 15 14.4816 15.0903C14.7783 15.1677 15.2299 15.2194 15.8364 15.2452V16C15.488 15.9742 15.0106 15.9613 14.4041 15.9613C13.8106 15.9484 13.1203 15.9419 12.3332 15.9419C11.6106 15.9419 10.959 15.9484 10.3783 15.9613C9.79768 15.9613 9.32671 15.9742 8.96542 16ZM0.0621975 16V15.2452C0.668649 15.2194 1.11381 15.1677 1.39768 15.0903C1.69446 15.0129 1.888 14.8581 1.97833 14.6258C2.06865 14.3935 2.11381 14.0452 2.11381 13.5806V4.71613C2.11381 4.23871 2.06865 3.89032 1.97833 3.67097C1.888 3.45161 1.69446 3.29677 1.39768 3.20645C1.11381 3.11613 0.668649 3.06452 0.0621975 3.05161V2.29677C0.410585 2.30968 0.894456 2.32258 1.51381 2.33548C2.13317 2.34839 2.84284 2.35484 3.64284 2.35484C4.33962 2.35484 4.97187 2.34839 5.53962 2.33548C6.12026 2.32258 6.57833 2.30968 6.91381 2.29677V3.05161C6.37187 3.06452 5.96542 3.11613 5.69446 3.20645C5.43639 3.28387 5.2622 3.43871 5.17188 3.67097C5.09446 3.89032 5.05575 4.23871 5.05575 4.71613V13.5806C5.05575 14.0452 5.09446 14.3935 5.17188 14.6258C5.2622 14.8452 5.43639 15 5.69446 15.0903C5.96542 15.1677 6.37187 15.2194 6.91381 15.2452V16C6.57833 15.9742 6.12026 15.9613 5.53962 15.9613C4.95897 15.9484 4.31381 15.9419 3.60413 15.9419C2.80413 15.9419 2.10091 15.9484 1.49446 15.9613C0.888004 15.9613 0.410585 15.9742 0.0621975 16ZM3.8751 9.49677V8.74194H12.0235V9.49677H3.8751ZM22.1733 16.271C21.2055 16.271 20.3604 16.0645 19.6378 15.6516C18.9281 15.2258 18.3797 14.6194 17.9926 13.8323C17.6055 13.0452 17.412 12.1097 17.412 11.0258C17.412 9.89032 17.6184 8.92903 18.0314 8.14194C18.4443 7.35484 19.0249 6.75484 19.7733 6.34194C20.5217 5.92903 21.3991 5.72258 22.4055 5.72258C23.3088 5.72258 24.0765 5.89032 24.7088 6.22581C25.341 6.54839 25.8184 7.05806 26.141 7.75484C26.4636 8.45161 26.612 9.35484 26.5862 10.4645H19.3281L19.3088 9.72903H24.1668C24.1797 9.09677 24.1217 8.54194 23.9926 8.06452C23.8765 7.57419 23.683 7.1871 23.412 6.90323C23.141 6.61936 22.7862 6.47742 22.3475 6.47742C21.7926 6.47742 21.3152 6.74839 20.9152 7.29032C20.5281 7.83226 20.2959 8.69032 20.2184 9.86452L20.2572 9.94194C20.2443 10.0581 20.2378 10.1871 20.2378 10.329C20.2378 10.471 20.2378 10.6323 20.2378 10.8129C20.2378 12.0903 20.4765 13.0903 20.9539 13.8129C21.4443 14.5355 22.1539 14.8968 23.083 14.8968C23.7152 14.8968 24.2636 14.7419 24.7281 14.4323C25.2055 14.1097 25.6055 13.6194 25.9281 12.9613L26.6249 13.3484C26.2507 14.2903 25.683 15.0129 24.9217 15.5161C24.1604 16.0194 23.2443 16.271 22.1733 16.271ZM34.3442 16.271C33.6861 16.271 33.1119 16.1484 32.6216 15.9032C32.1312 15.6581 31.77 15.3613 31.5377 15.0129L31.7119 14.3161C31.8796 14.6129 32.1248 14.8516 32.4474 15.0323C32.77 15.2129 33.1377 15.3032 33.5506 15.3032C34.3893 15.3032 35.0216 14.9484 35.4474 14.2387C35.8732 13.5161 36.0861 12.4323 36.0861 10.9871C36.0861 9.65806 35.899 8.64516 35.5248 7.94839C35.1635 7.23871 34.628 6.88387 33.9183 6.88387C33.4796 6.88387 33.0603 7.01936 32.6603 7.29032C32.2732 7.56129 31.9958 7.92258 31.828 8.37419L31.7119 7.8129C31.9312 7.18065 32.3248 6.67742 32.8925 6.30323C33.4603 5.91613 34.1312 5.72258 34.9054 5.72258C35.7312 5.72258 36.4409 5.93548 37.0345 6.36129C37.6409 6.77419 38.1054 7.36774 38.428 8.14194C38.7506 8.91613 38.9119 9.83226 38.9119 10.8903C38.9119 12.0129 38.7248 12.9806 38.3506 13.7935C37.9893 14.5935 37.4667 15.2065 36.7829 15.6323C36.099 16.0581 35.2861 16.271 34.3442 16.271ZM29.2151 16.329L28.6732 15.6903C28.828 15.5226 28.9442 15.3548 29.0216 15.1871C29.1119 15.0194 29.17 14.8194 29.1958 14.5871C29.2345 14.3548 29.2538 14.0774 29.2538 13.7548V3.51613C29.2538 2.92258 29.1183 2.49677 28.8474 2.23871C28.5893 1.98065 28.1183 1.83871 27.4345 1.8129V1.05806C27.6796 1.07097 27.9377 1.08387 28.2087 1.09677C28.4796 1.10968 28.7442 1.11613 29.0022 1.11613C29.57 1.11613 30.099 1.09677 30.5893 1.05806C31.0796 1.00645 31.5312 0.935484 31.9442 0.845161V15.3032C31.6216 15.2903 31.2925 15.329 30.9571 15.4194C30.6216 15.5097 30.299 15.6323 29.9893 15.7871C29.6925 15.9419 29.4345 16.1226 29.2151 16.329ZM43.8007 16.271C42.949 16.271 42.2716 16.0516 41.7684 15.6129C41.2652 15.1613 41.0136 14.5548 41.0136 13.7935C41.0136 13.2 41.149 12.7226 41.42 12.3613C41.7039 11.9871 42.0652 11.6839 42.5039 11.4516C42.9426 11.2194 43.4071 11.0323 43.8974 10.8903C44.4007 10.7355 44.8716 10.5935 45.3103 10.4645C45.749 10.3226 46.1039 10.1613 46.3748 9.98065C46.6587 9.7871 46.8007 9.53548 46.8007 9.22581V8.29677C46.8007 7.71613 46.6458 7.27097 46.3361 6.96129C46.0265 6.65161 45.5684 6.49677 44.9619 6.49677C44.5232 6.49677 44.1619 6.56129 43.8781 6.69032C43.5942 6.81936 43.4523 6.9871 43.4523 7.19355C43.4523 7.34839 43.5039 7.50323 43.6071 7.65806C43.7103 7.8129 43.8071 7.98065 43.8974 8.16129C44.0007 8.32903 44.0523 8.51613 44.0523 8.72258C44.0523 9.00645 43.9361 9.23871 43.7039 9.41935C43.4845 9.5871 43.1878 9.67097 42.8136 9.67097C42.3878 9.67097 42.0458 9.54839 41.7878 9.30323C41.5426 9.04516 41.42 8.70968 41.42 8.29677C41.42 7.78065 41.6007 7.33548 41.9619 6.96129C42.3361 6.57419 42.8523 6.27097 43.5103 6.05161C44.1684 5.83226 44.9232 5.72258 45.7748 5.72258C46.6523 5.72258 47.3619 5.84516 47.9039 6.09032C48.4458 6.32258 48.8394 6.70968 49.0845 7.25161C49.3426 7.78065 49.4716 8.49032 49.4716 9.38065V14.3742C49.4716 14.671 49.5168 14.8839 49.6071 15.0129C49.6974 15.1419 49.8458 15.2065 50.0523 15.2065C50.22 15.2065 50.3942 15.1677 50.5748 15.0903C50.7555 15.0129 50.9361 14.9097 51.1168 14.7806L51.4265 15.4C51.091 15.6839 50.7103 15.8968 50.2845 16.0387C49.8587 16.1935 49.3813 16.271 48.8523 16.271C47.5103 16.271 46.8329 15.7419 46.82 14.6839C46.4458 15.2129 46.0071 15.6129 45.5039 15.8839C45.0007 16.1419 44.4329 16.271 43.8007 16.271ZM45.0394 14.8387C45.3878 14.8387 45.7103 14.7613 46.0071 14.6065C46.3039 14.4387 46.5684 14.2 46.8007 13.8903V10.2903C46.6845 10.4839 46.5039 10.6581 46.2587 10.8129C46.0265 10.9548 45.7619 11.0968 45.4652 11.2387C45.1684 11.3806 44.8845 11.5419 44.6136 11.7226C44.3426 11.9032 44.1168 12.129 43.9361 12.4C43.7555 12.6581 43.6652 12.9871 43.6652 13.3871C43.6652 13.8387 43.7878 14.1935 44.0329 14.4516C44.2781 14.7097 44.6136 14.8387 45.0394 14.8387ZM54.5863 16.271C54.0444 16.271 53.6121 16.129 53.2895 15.8452C52.9669 15.5613 52.8056 15.1742 52.8056 14.6839C52.8056 14.2065 52.9605 13.8258 53.2702 13.5419C53.5927 13.2581 54.025 13.1161 54.5669 13.1161C55.1089 13.1161 55.5411 13.2581 55.8637 13.5419C56.1863 13.8258 56.3476 14.2065 56.3476 14.6839C56.3476 15.1742 56.1863 15.5613 55.8637 15.8452C55.5411 16.129 55.1153 16.271 54.5863 16.271ZM67.1373 16V15.2452C67.6921 15.2194 68.0986 15.1677 68.3567 15.0903C68.6147 15.0129 68.7889 14.8581 68.8792 14.6258C68.9696 14.3935 69.0147 14.0452 69.0147 13.5806V4.71613C69.0147 4.23871 68.9696 3.89032 68.8792 3.67097C68.7889 3.45161 68.6147 3.29677 68.3567 3.20645C68.0986 3.11613 67.6921 3.06452 67.1373 3.05161V2.29677C67.4986 2.30968 67.9696 2.32258 68.5502 2.33548C69.1437 2.34839 69.7954 2.35484 70.505 2.35484C71.2921 2.35484 71.9825 2.34839 72.576 2.33548C73.1825 2.32258 73.6599 2.30968 74.0083 2.29677V3.05161C73.4018 3.06452 72.9502 3.11613 72.6534 3.20645C72.3696 3.28387 72.1825 3.43871 72.0921 3.67097C72.0018 3.89032 71.9567 4.23871 71.9567 4.71613V13.5806C71.9567 14.0452 72.0018 14.3935 72.0921 14.6258C72.1825 14.8452 72.3696 15 72.6534 15.0903C72.9502 15.1677 73.4018 15.2194 74.0083 15.2452V16C73.6599 15.9742 73.1825 15.9613 72.576 15.9613C71.9825 15.9484 71.2921 15.9419 70.505 15.9419C69.7825 15.9419 69.1308 15.9484 68.5502 15.9613C67.9696 15.9613 67.4986 15.9742 67.1373 16ZM58.2341 16V15.2452C58.8405 15.2194 59.2857 15.1677 59.5696 15.0903C59.8663 15.0129 60.0599 14.8581 60.1502 14.6258C60.2405 14.3935 60.2857 14.0452 60.2857 13.5806V4.71613C60.2857 4.23871 60.2405 3.89032 60.1502 3.67097C60.0599 3.45161 59.8663 3.29677 59.5696 3.20645C59.2857 3.11613 58.8405 3.06452 58.2341 3.05161V2.29677C58.5825 2.30968 59.0663 2.32258 59.6857 2.33548C60.305 2.34839 61.0147 2.35484 61.8147 2.35484C62.5115 2.35484 63.1437 2.34839 63.7115 2.33548C64.2921 2.32258 64.7502 2.30968 65.0857 2.29677V3.05161C64.5437 3.06452 64.1373 3.11613 63.8663 3.20645C63.6083 3.28387 63.4341 3.43871 63.3438 3.67097C63.2663 3.89032 63.2276 4.23871 63.2276 4.71613V13.5806C63.2276 14.0452 63.2663 14.3935 63.3438 14.6258C63.4341 14.8452 63.6083 15 63.8663 15.0903C64.1373 15.1677 64.5437 15.2194 65.0857 15.2452V16C64.7502 15.9742 64.2921 15.9613 63.7115 15.9613C63.1308 15.9484 62.4857 15.9419 61.776 15.9419C60.976 15.9419 60.2728 15.9484 59.6663 15.9613C59.0599 15.9613 58.5825 15.9742 58.2341 16ZM62.047 9.49677V8.74194H70.1954V9.49677H62.047ZM78.4413 16.271C77.5897 16.271 76.9122 16.0516 76.409 15.6129C75.9058 15.1613 75.6542 14.5548 75.6542 13.7935C75.6542 13.2 75.7897 12.7226 76.0606 12.3613C76.3445 11.9871 76.7058 11.6839 77.1445 11.4516C77.5832 11.2194 78.0477 11.0323 78.5381 10.8903C79.0413 10.7355 79.5122 10.5935 79.951 10.4645C80.3897 10.3226 80.7445 10.1613 81.0155 9.98065C81.2993 9.7871 81.4413 9.53548 81.4413 9.22581V8.29677C81.4413 7.71613 81.2864 7.27097 80.9768 6.96129C80.6671 6.65161 80.209 6.49677 79.6026 6.49677C79.1639 6.49677 78.8026 6.56129 78.5187 6.69032C78.2348 6.81936 78.0929 6.9871 78.0929 7.19355C78.0929 7.34839 78.1445 7.50323 78.2477 7.65806C78.351 7.8129 78.4477 7.98065 78.5381 8.16129C78.6413 8.32903 78.6929 8.51613 78.6929 8.72258C78.6929 9.00645 78.5768 9.23871 78.3445 9.41935C78.1252 9.5871 77.8284 9.67097 77.4542 9.67097C77.0284 9.67097 76.6864 9.54839 76.4284 9.30323C76.1832 9.04516 76.0606 8.70968 76.0606 8.29677C76.0606 7.78065 76.2413 7.33548 76.6026 6.96129C76.9768 6.57419 77.4929 6.27097 78.151 6.05161C78.809 5.83226 79.5639 5.72258 80.4155 5.72258C81.2929 5.72258 82.0026 5.84516 82.5445 6.09032C83.0864 6.32258 83.48 6.70968 83.7252 7.25161C83.9832 7.78065 84.1122 8.49032 84.1122 9.38065V14.3742C84.1122 14.671 84.1574 14.8839 84.2477 15.0129C84.3381 15.1419 84.4864 15.2065 84.6929 15.2065C84.8606 15.2065 85.0348 15.1677 85.2155 15.0903C85.3961 15.0129 85.5768 14.9097 85.7574 14.7806L86.0671 15.4C85.7316 15.6839 85.351 15.8968 84.9252 16.0387C84.4993 16.1935 84.0219 16.271 83.4929 16.271C82.151 16.271 81.4735 15.7419 81.4606 14.6839C81.0864 15.2129 80.6477 15.6129 80.1445 15.8839C79.6413 16.1419 79.0735 16.271 78.4413 16.271ZM79.68 14.8387C80.0284 14.8387 80.351 14.7613 80.6477 14.6065C80.9445 14.4387 81.209 14.2 81.4413 13.8903V10.2903C81.3252 10.4839 81.1445 10.6581 80.8993 10.8129C80.6671 10.9548 80.4026 11.0968 80.1058 11.2387C79.809 11.3806 79.5252 11.5419 79.2542 11.7226C78.9832 11.9032 78.7574 12.129 78.5768 12.4C78.3961 12.6581 78.3058 12.9871 78.3058 13.3871C78.3058 13.8387 78.4284 14.1935 78.6735 14.4516C78.9187 14.7097 79.2542 14.8387 79.68 14.8387ZM99.7712 16V15.2452C100.21 15.2323 100.507 15.129 100.662 14.9355C100.829 14.729 100.913 14.3677 100.913 13.8516V9.0129C100.913 8.34194 100.784 7.83226 100.526 7.48387C100.281 7.13548 99.9132 6.96129 99.4228 6.96129C98.997 6.96129 98.5906 7.09677 98.2035 7.36774C97.8293 7.63871 97.5003 8.07097 97.2164 8.66452L97.1003 7.96774C97.4615 7.19355 97.9454 6.62581 98.5519 6.26452C99.1583 5.90323 99.8228 5.72258 100.545 5.72258C101.526 5.72258 102.274 6.03226 102.791 6.65161C103.32 7.25806 103.584 8.13548 103.584 9.28387V13.8516C103.584 14.3677 103.72 14.729 103.991 14.9355C104.262 15.129 104.739 15.2323 105.423 15.2452V16C105.229 15.9871 104.958 15.9806 104.61 15.9806C104.262 15.9677 103.887 15.9548 103.487 15.9419C103.087 15.929 102.694 15.9226 102.307 15.9226C101.816 15.9226 101.333 15.9355 100.855 15.9613C100.378 15.9742 100.016 15.9871 99.7712 16ZM86.8228 16V15.2452C87.5196 15.2323 87.997 15.129 88.2551 14.9355C88.5261 14.729 88.6615 14.3677 88.6615 13.8516V8.45161C88.6615 7.84516 88.5196 7.41935 88.2357 7.17419C87.9648 6.91613 87.4938 6.77419 86.8228 6.74839V5.99355C87.1067 6.00645 87.3841 6.01936 87.6551 6.03226C87.9261 6.04516 88.197 6.05161 88.468 6.05161C89.0228 6.05161 89.5325 6.03226 89.997 5.99355C90.4744 5.94194 90.9196 5.87097 91.3325 5.78065V13.8516C91.3325 14.3677 91.4099 14.729 91.5648 14.9355C91.7325 15.129 92.0293 15.2323 92.4551 15.2452V16C92.197 15.9871 91.8422 15.9742 91.3906 15.9613C90.9519 15.9355 90.4938 15.9226 90.0164 15.9226C89.4486 15.9226 88.8615 15.9355 88.2551 15.9613C87.6615 15.9742 87.1841 15.9871 86.8228 16ZM93.6551 16V15.2452C94.0809 15.2323 94.3712 15.129 94.5261 14.9355C94.6938 14.729 94.7777 14.3677 94.7777 13.8516V9.0129C94.7777 8.34194 94.6486 7.83226 94.3906 7.48387C94.1454 7.13548 93.7777 6.96129 93.2873 6.96129C92.8744 6.96129 92.4938 7.08387 92.1454 7.32903C91.797 7.56129 91.4938 7.91613 91.2357 8.39355V7.54194C91.5583 6.96129 91.9906 6.51613 92.5325 6.20645C93.0873 5.88387 93.7196 5.72258 94.4293 5.72258C95.4099 5.72258 96.1583 6.02581 96.6744 6.63226C97.1906 7.22581 97.4486 8.09032 97.4486 9.22581V13.8516C97.4486 14.3677 97.5325 14.729 97.7003 14.9355C97.868 15.129 98.1712 15.2323 98.6099 15.2452V16C98.3777 15.9871 98.0293 15.9742 97.5648 15.9613C97.1003 15.9355 96.6357 15.9226 96.1712 15.9226C95.6938 15.9226 95.2164 15.9355 94.739 15.9613C94.2615 15.9742 93.9003 15.9871 93.6551 16ZM113.723 16.2129V3.51613C113.723 2.90968 113.588 2.48387 113.317 2.23871C113.046 1.98065 112.575 1.83871 111.904 1.8129V1.05806C112.188 1.07097 112.459 1.08387 112.717 1.09677C112.988 1.10968 113.272 1.11613 113.569 1.11613C114.098 1.11613 114.601 1.09677 115.078 1.05806C115.556 1.00645 116.001 0.935484 116.414 0.845161V13.5419C116.414 14.1355 116.549 14.5677 116.82 14.8387C117.091 15.0968 117.562 15.2323 118.233 15.2452V16C117.962 15.9742 117.691 15.9613 117.42 15.9613C117.149 15.9484 116.865 15.9419 116.569 15.9419C116.04 15.9419 115.536 15.9613 115.059 16C114.582 16.0516 114.136 16.1226 113.723 16.2129ZM110.84 16.271C110.001 16.271 109.278 16.0645 108.672 15.6516C108.065 15.2258 107.594 14.6258 107.259 13.8516C106.923 13.0774 106.756 12.1548 106.756 11.0839C106.756 9.96129 106.936 9 107.298 8.2C107.672 7.4 108.201 6.7871 108.885 6.36129C109.569 5.93548 110.382 5.72258 111.323 5.72258C111.994 5.72258 112.569 5.84516 113.046 6.09032C113.523 6.33548 113.859 6.64516 114.053 7.01935L113.936 7.69677C113.782 7.4 113.543 7.16129 113.22 6.98065C112.898 6.7871 112.517 6.69032 112.078 6.69032C111.265 6.69032 110.646 7.05161 110.22 7.77419C109.794 8.49677 109.582 9.56774 109.582 10.9871C109.582 12.329 109.769 13.3548 110.143 14.0645C110.53 14.7613 111.091 15.1097 111.827 15.1097C112.291 15.1097 112.698 14.9613 113.046 14.6645C113.407 14.3677 113.678 13.9484 113.859 13.4065L113.956 14.1032C113.736 14.7871 113.356 15.3226 112.814 15.7097C112.285 16.0839 111.627 16.271 110.84 16.271ZM122.433 16.271C121.582 16.271 120.904 16.0516 120.401 15.6129C119.898 15.1613 119.646 14.5548 119.646 13.7935C119.646 13.2 119.782 12.7226 120.053 12.3613C120.337 11.9871 120.698 11.6839 121.137 11.4516C121.575 11.2194 122.04 11.0323 122.53 10.8903C123.033 10.7355 123.504 10.5935 123.943 10.4645C124.382 10.3226 124.737 10.1613 125.008 9.98065C125.292 9.7871 125.433 9.53548 125.433 9.22581V8.29677C125.433 7.71613 125.279 7.27097 124.969 6.96129C124.659 6.65161 124.201 6.49677 123.595 6.49677C123.156 6.49677 122.795 6.56129 122.511 6.69032C122.227 6.81936 122.085 6.9871 122.085 7.19355C122.085 7.34839 122.137 7.50323 122.24 7.65806C122.343 7.8129 122.44 7.98065 122.53 8.16129C122.633 8.32903 122.685 8.51613 122.685 8.72258C122.685 9.00645 122.569 9.23871 122.337 9.41935C122.117 9.5871 121.821 9.67097 121.446 9.67097C121.021 9.67097 120.679 9.54839 120.421 9.30323C120.175 9.04516 120.053 8.70968 120.053 8.29677C120.053 7.78065 120.233 7.33548 120.595 6.96129C120.969 6.57419 121.485 6.27097 122.143 6.05161C122.801 5.83226 123.556 5.72258 124.408 5.72258C125.285 5.72258 125.995 5.84516 126.537 6.09032C127.079 6.32258 127.472 6.70968 127.717 7.25161C127.975 7.78065 128.104 8.49032 128.104 9.38065V14.3742C128.104 14.671 128.15 14.8839 128.24 15.0129C128.33 15.1419 128.479 15.2065 128.685 15.2065C128.853 15.2065 129.027 15.1677 129.208 15.0903C129.388 15.0129 129.569 14.9097 129.75 14.7806L130.059 15.4C129.724 15.6839 129.343 15.8968 128.917 16.0387C128.492 16.1935 128.014 16.271 127.485 16.271C126.143 16.271 125.466 15.7419 125.453 14.6839C125.079 15.2129 124.64 15.6129 124.137 15.8839C123.633 16.1419 123.066 16.271 122.433 16.271ZM123.672 14.8387C124.021 14.8387 124.343 14.7613 124.64 14.6065C124.937 14.4387 125.201 14.2 125.433 13.8903V10.2903C125.317 10.4839 125.137 10.6581 124.892 10.8129C124.659 10.9548 124.395 11.0968 124.098 11.2387C123.801 11.3806 123.517 11.5419 123.246 11.7226C122.975 11.9032 122.75 12.129 122.569 12.4C122.388 12.6581 122.298 12.9871 122.298 13.3871C122.298 13.8387 122.421 14.1935 122.666 14.4516C122.911 14.7097 123.246 14.8387 123.672 14.8387ZM137.744 16V15.2452C138.221 15.2323 138.544 15.129 138.712 14.9355C138.892 14.729 138.983 14.3677 138.983 13.8516V9.05161C138.983 8.35484 138.841 7.83226 138.557 7.48387C138.286 7.13548 137.88 6.96129 137.338 6.96129C136.912 6.96129 136.518 7.08387 136.157 7.32903C135.796 7.57419 135.486 7.92903 135.228 8.39355V7.54194C135.551 6.96129 135.989 6.51613 136.544 6.20645C137.112 5.88387 137.757 5.72258 138.48 5.72258C139.512 5.72258 140.299 6.03226 140.841 6.65161C141.383 7.25806 141.654 8.13548 141.654 9.28387V13.8516C141.654 14.3677 141.789 14.729 142.06 14.9355C142.331 15.129 142.809 15.2323 143.492 15.2452V16C143.299 15.9871 143.028 15.9806 142.68 15.9806C142.344 15.9677 141.97 15.9548 141.557 15.9419C141.157 15.929 140.763 15.9226 140.376 15.9226C139.873 15.9226 139.37 15.9355 138.867 15.9613C138.363 15.9742 137.989 15.9871 137.744 16ZM130.815 16V15.2452C131.512 15.2323 131.989 15.129 132.247 14.9355C132.518 14.729 132.654 14.3677 132.654 13.8516V8.45161C132.654 7.84516 132.512 7.41935 132.228 7.17419C131.957 6.91613 131.486 6.77419 130.815 6.74839V5.99355C131.086 6.00645 131.357 6.01936 131.628 6.03226C131.899 6.04516 132.176 6.05161 132.46 6.05161C133.015 6.05161 133.531 6.03226 134.009 5.99355C134.486 5.94194 134.925 5.87097 135.325 5.78065V13.8516C135.325 14.3677 135.415 14.729 135.596 14.9355C135.776 15.129 136.099 15.2323 136.563 15.2452V16C136.292 15.9871 135.925 15.9742 135.46 15.9613C134.996 15.9355 134.512 15.9226 134.009 15.9226C133.441 15.9226 132.854 15.9355 132.247 15.9613C131.654 15.9742 131.176 15.9871 130.815 16Z" fill="#131212"/>
</svg>
