<svg width="91" height="100" viewBox="0 0 91 100" fill="none" xmlns="http://www.w3.org/2000/svg">
<g clip-path="url(#clip0_2010_1439)">
<g clip-path="url(#clip1_2010_1439)">
<path d="M74.7954 0H16.7954C15.1386 0 13.7954 1.34315 13.7954 3V61C13.7954 62.6569 15.1386 64 16.7954 64H74.7954C76.4523 64 77.7954 62.6569 77.7954 61V3C77.7954 1.34315 76.4523 0 74.7954 0Z" fill="#3178C6"/>
<path fill-rule="evenodd" clip-rule="evenodd" d="M50.9265 49.734V56.747C52.0627 57.331 53.4064 57.7695 54.9578 58.0615C56.5091 58.354 58.1442 58.5 59.863 58.5C61.5382 58.5 63.1295 58.3395 64.6369 58.018C66.1449 57.6965 67.4664 57.167 68.6029 56.429C69.7389 55.691 70.6384 54.727 71.3014 53.536C71.9639 52.3455 72.2954 50.8735 72.2954 49.1203C72.2954 47.8493 72.1059 46.7353 71.7274 45.7783C71.3484 44.8214 70.8024 43.9704 70.0884 43.2252C69.3749 42.4801 68.5189 41.8117 67.5214 41.22C66.5234 40.6283 65.3984 40.0694 64.1454 39.5435C63.2278 39.1636 62.4048 38.7947 61.6765 38.4368C60.9482 38.0788 60.3291 37.7136 59.8193 37.341C59.3095 36.9684 58.9162 36.574 58.6394 36.1576C58.3627 35.7413 58.2243 35.27 58.2243 34.7441C58.2243 34.2619 58.3481 33.8273 58.5957 33.4402C58.8434 33.053 59.193 32.7206 59.6445 32.443C60.0961 32.1655 60.6496 31.95 61.3051 31.7966C61.9606 31.6431 62.6889 31.5664 63.49 31.5664C64.0729 31.5664 64.6879 31.6103 65.3364 31.6979C65.9844 31.7856 66.6364 31.9207 67.2919 32.1034C67.9474 32.286 68.5844 32.5161 69.2039 32.7937C69.8229 33.0713 70.3944 33.3927 70.9189 33.7579V27.2054C69.8554 26.7963 68.6939 26.4931 67.4339 26.2959C66.1739 26.0986 64.7284 26 63.0967 26C61.4362 26 59.863 26.1789 58.3772 26.5369C56.8915 26.8948 55.5841 27.4537 54.4552 28.2134C53.3263 28.9731 52.4341 29.941 51.7787 31.1171C51.1232 32.2932 50.7954 33.6995 50.7954 35.3358C50.7954 37.4251 51.3963 39.2074 52.598 40.683C53.7998 42.1587 55.6242 43.4079 58.0713 44.4305C59.0327 44.825 59.9286 45.2122 60.7588 45.592C61.5891 45.9719 62.3065 46.3664 62.911 46.7755C63.5155 47.1846 63.9924 47.6302 64.3419 48.1123C64.6919 48.5944 64.8664 49.1423 64.8664 49.7559C64.8664 50.209 64.7574 50.629 64.5389 51.016C64.3204 51.403 63.9889 51.739 63.5447 52.024C63.1004 52.309 62.5469 52.532 61.8841 52.6925C61.2213 52.853 60.4457 52.9335 59.5571 52.9335C58.0422 52.9335 56.5419 52.667 55.0561 52.1335C53.5703 51.6005 52.1938 50.8005 50.9265 49.734ZM39.1467 32.2772H48.2954V26.5H22.7954V32.2772H31.8994V58H39.1467V32.2772Z" fill="white"/>
</g>
<path d="M1.66473 81.3153V79.9091H11.4829V81.3153H7.36643V93H5.78121V81.3153H1.66473ZM13.5715 96.6818C13.3158 96.6818 13.0878 96.6605 12.8876 96.6179C12.6873 96.5795 12.5488 96.5412 12.4721 96.5028L12.8556 95.1733C13.2221 95.267 13.5459 95.3011 13.8272 95.2756C14.1084 95.25 14.3577 95.1243 14.5751 94.8984C14.7967 94.6768 14.9991 94.3168 15.1823 93.8182L15.4636 93.0511L11.8329 83.1818H13.4692L16.1795 91.0057H16.2817L18.992 83.1818H20.6283L16.4607 94.4318C16.2732 94.9389 16.041 95.3587 15.764 95.6911C15.487 96.0277 15.1653 96.277 14.7988 96.4389C14.4366 96.6009 14.0275 96.6818 13.5715 96.6818ZM22.6195 96.6818V83.1818H24.0768V84.7415H24.2558C24.3666 84.571 24.52 84.3537 24.716 84.0895C24.9163 83.821 25.2018 83.5824 25.5726 83.3736C25.9476 83.1605 26.4547 83.054 27.0939 83.054C27.9206 83.054 28.6493 83.2607 29.28 83.674C29.9106 84.0874 30.4028 84.6733 30.7565 85.4318C31.1102 86.1903 31.2871 87.0852 31.2871 88.1165C31.2871 89.1562 31.1102 90.0575 30.7565 90.8203C30.4028 91.5788 29.9128 92.1669 29.2864 92.5845C28.6599 92.9979 27.9376 93.2045 27.1195 93.2045C26.4888 93.2045 25.9838 93.1001 25.6045 92.8913C25.2253 92.6783 24.9334 92.4375 24.7288 92.169C24.5243 91.8963 24.3666 91.6705 24.2558 91.4915H24.128V96.6818H22.6195ZM24.1024 88.0909C24.1024 88.8324 24.2111 89.4865 24.4284 90.0533C24.6457 90.6158 24.9632 91.0568 25.3808 91.3764C25.7984 91.6918 26.3098 91.8494 26.9149 91.8494C27.5456 91.8494 28.0719 91.6832 28.4937 91.3509C28.9199 91.0142 29.2395 90.5625 29.4525 89.9957C29.6699 89.4247 29.7785 88.7898 29.7785 88.0909C29.7785 87.4006 29.672 86.7784 29.4589 86.2244C29.2501 85.6662 28.9327 85.2251 28.5065 84.9013C28.0847 84.5732 27.5541 84.4091 26.9149 84.4091C26.3013 84.4091 25.7856 84.5646 25.368 84.8757C24.9504 85.1825 24.6351 85.6129 24.422 86.1669C24.2089 86.7166 24.1024 87.358 24.1024 88.0909ZM37.7047 93.2045C36.7587 93.2045 35.9426 92.9957 35.2565 92.5781C34.5747 92.1562 34.0484 91.5682 33.6777 90.8139C33.3112 90.0554 33.128 89.1733 33.128 88.1676C33.128 87.1619 33.3112 86.2756 33.6777 85.5085C34.0484 84.7372 34.5641 84.1364 35.2246 83.706C35.8893 83.2713 36.6649 83.054 37.5513 83.054C38.0626 83.054 38.5676 83.1392 39.0662 83.3097C39.5648 83.4801 40.0186 83.7571 40.4277 84.1406C40.8368 84.5199 41.1628 85.0227 41.4057 85.6491C41.6486 86.2756 41.77 87.0469 41.77 87.9631V88.6023H34.2018V87.2983H40.2359C40.2359 86.7443 40.1251 86.25 39.9035 85.8153C39.6862 85.3807 39.3751 85.0376 38.9703 84.7862C38.5697 84.5348 38.0967 84.4091 37.5513 84.4091C36.9504 84.4091 36.4305 84.5582 35.9916 84.8565C35.557 85.1506 35.2224 85.5341 34.9881 86.0071C34.7537 86.4801 34.6365 86.9872 34.6365 87.5284V88.3977C34.6365 89.1392 34.7643 89.7678 35.02 90.2834C35.28 90.7947 35.64 91.1847 36.1003 91.4531C36.5605 91.7173 37.0953 91.8494 37.7047 91.8494C38.101 91.8494 38.4589 91.794 38.7785 91.6832C39.1024 91.5682 39.3815 91.3977 39.6159 91.1719C39.8503 90.9418 40.0314 90.6562 40.1592 90.3153L41.6166 90.7244C41.4632 91.2188 41.2054 91.6534 40.8432 92.0284C40.481 92.3991 40.0335 92.6889 39.5008 92.8977C38.9682 93.1023 38.3695 93.2045 37.7047 93.2045ZM51.0193 85.3807L49.6642 85.7642C49.579 85.5384 49.4533 85.3189 49.2871 85.1058C49.1251 84.8885 48.9035 84.7095 48.6223 84.5689C48.341 84.4283 47.981 84.358 47.542 84.358C46.9412 84.358 46.4405 84.4964 46.0399 84.7734C45.6436 85.0462 45.4454 85.3935 45.4454 85.8153C45.4454 86.1903 45.5818 86.4865 45.8545 86.7038C46.1273 86.9212 46.5534 87.1023 47.1329 87.2472L48.5903 87.6051C49.4682 87.8182 50.1223 88.1442 50.5527 88.5831C50.9831 89.0178 51.1983 89.5781 51.1983 90.2642C51.1983 90.8267 51.0364 91.3295 50.7125 91.7727C50.3929 92.2159 49.9454 92.5653 49.3702 92.821C48.7949 93.0767 48.1258 93.2045 47.3631 93.2045C46.3616 93.2045 45.5328 92.9872 44.8766 92.5526C44.2203 92.1179 43.8048 91.483 43.6301 90.6477L45.0619 90.2898C45.1983 90.8182 45.4561 91.2145 45.8354 91.4787C46.2189 91.7429 46.7196 91.875 47.3375 91.875C48.0406 91.875 48.5989 91.7259 49.0122 91.4276C49.4298 91.125 49.6386 90.7628 49.6386 90.3409C49.6386 90 49.5193 89.7145 49.2807 89.4844C49.042 89.25 48.6756 89.0753 48.1812 88.9602L46.5449 88.5767C45.6457 88.3636 44.9852 88.0334 44.5633 87.5859C44.1457 87.1342 43.9369 86.5696 43.9369 85.892C43.9369 85.3381 44.0925 84.848 44.4035 84.4219C44.7189 83.9957 45.1472 83.6612 45.6883 83.4183C46.2338 83.1754 46.8517 83.054 47.542 83.054C48.5136 83.054 49.2764 83.267 49.8304 83.6932C50.3886 84.1193 50.7849 84.6818 51.0193 85.3807ZM57.4577 93.2045C56.5372 93.2045 55.7446 92.9872 55.0799 92.5526C54.4151 92.1179 53.9037 91.5192 53.5458 90.7564C53.1878 89.9936 53.0088 89.1222 53.0088 88.142C53.0088 87.1449 53.1921 86.2649 53.5585 85.5021C53.9293 84.7351 54.4449 84.1364 55.1054 83.706C55.7702 83.2713 56.5458 83.054 57.4321 83.054C58.1225 83.054 58.7446 83.1818 59.2986 83.4375C59.8526 83.6932 60.3064 84.0511 60.6601 84.5114C61.0138 84.9716 61.2333 85.5085 61.3185 86.1222H59.81C59.6949 85.6747 59.4392 85.2784 59.0429 84.9332C58.6509 84.5838 58.1225 84.4091 57.4577 84.4091C56.8696 84.4091 56.354 84.5625 55.9108 84.8693C55.4719 85.1719 55.1289 85.6001 54.8817 86.1541C54.6388 86.7038 54.5174 87.3494 54.5174 88.0909C54.5174 88.8494 54.6367 89.5099 54.8753 90.0724C55.1182 90.6349 55.4591 91.0717 55.898 91.3828C56.3412 91.6939 56.8611 91.8494 57.4577 91.8494C57.8497 91.8494 58.2056 91.7812 58.5252 91.6449C58.8448 91.5085 59.1154 91.3125 59.337 91.0568C59.5585 90.8011 59.7162 90.4943 59.81 90.1364H61.3185C61.2333 90.7159 61.0223 91.2379 60.6857 91.7024C60.3533 92.1626 59.9122 92.5291 59.3625 92.8018C58.8171 93.0703 58.1821 93.2045 57.4577 93.2045ZM63.5237 93V83.1818H64.9811V84.6648H65.0834C65.2624 84.179 65.5862 83.7848 66.055 83.4822C66.5237 83.1797 67.0522 83.0284 67.6402 83.0284C67.751 83.0284 67.8895 83.0305 68.0557 83.0348C68.2219 83.0391 68.3476 83.0455 68.4328 83.054V84.5881C68.3817 84.5753 68.2645 84.5561 68.0813 84.5305C67.9023 84.5007 67.7127 84.4858 67.5124 84.4858C67.0351 84.4858 66.609 84.5859 66.234 84.7862C65.8632 84.9822 65.5692 85.255 65.3519 85.6044C65.1388 85.9496 65.0323 86.3437 65.0323 86.7869V93H63.5237ZM70.221 93V83.1818H71.7295V93H70.221ZM70.9881 81.5455C70.694 81.5455 70.4405 81.4453 70.2274 81.245C70.0186 81.0447 69.9142 80.804 69.9142 80.5227C69.9142 80.2415 70.0186 80.0007 70.2274 79.8004C70.4405 79.6001 70.694 79.5 70.9881 79.5C71.2821 79.5 71.5335 79.6001 71.7423 79.8004C71.9554 80.0007 72.0619 80.2415 72.0619 80.5227C72.0619 80.804 71.9554 81.0447 71.7423 81.245C71.5335 81.4453 71.2821 81.5455 70.9881 81.5455ZM74.4925 96.6818V83.1818H75.9499V84.7415H76.1289C76.2397 84.571 76.3931 84.3537 76.5891 84.0895C76.7894 83.821 77.0749 83.5824 77.4456 83.3736C77.8206 83.1605 78.3277 83.054 78.9669 83.054C79.7936 83.054 80.5223 83.2607 81.153 83.674C81.7837 84.0874 82.2759 84.6733 82.6296 85.4318C82.9833 86.1903 83.1601 87.0852 83.1601 88.1165C83.1601 89.1562 82.9833 90.0575 82.6296 90.8203C82.2759 91.5788 81.7858 92.1669 81.1594 92.5845C80.533 92.9979 79.8107 93.2045 78.9925 93.2045C78.3618 93.2045 77.8568 93.1001 77.4776 92.8913C77.0983 92.6783 76.8064 92.4375 76.6019 92.169C76.3973 91.8963 76.2397 91.6705 76.1289 91.4915H76.001V96.6818H74.4925ZM75.9755 88.0909C75.9755 88.8324 76.0841 89.4865 76.3014 90.0533C76.5188 90.6158 76.8362 91.0568 77.2539 91.3764C77.6715 91.6918 78.1828 91.8494 78.788 91.8494C79.4186 91.8494 79.9449 91.6832 80.3668 91.3509C80.7929 91.0142 81.1125 90.5625 81.3256 89.9957C81.5429 89.4247 81.6516 88.7898 81.6516 88.0909C81.6516 87.4006 81.5451 86.7784 81.332 86.2244C81.1232 85.6662 80.8057 85.2251 80.3796 84.9013C79.9577 84.5732 79.4272 84.4091 78.788 84.4091C78.1743 84.4091 77.6587 84.5646 77.2411 84.8757C76.8235 85.1825 76.5081 85.6129 76.2951 86.1669C76.082 86.7166 75.9755 87.358 75.9755 88.0909ZM89.7311 83.1818V84.4602H84.6431V83.1818H89.7311ZM86.126 80.8295H87.6345V90.1875C87.6345 90.6136 87.6963 90.9332 87.8199 91.1463C87.9478 91.3551 88.1097 91.4957 88.3057 91.5682C88.506 91.6364 88.7169 91.6705 88.9385 91.6705C89.1047 91.6705 89.2411 91.6619 89.3476 91.6449C89.4541 91.6236 89.5394 91.6065 89.6033 91.5938L89.9101 92.9489C89.8078 92.9872 89.6651 93.0256 89.4818 93.0639C89.2986 93.1065 89.0664 93.1278 88.7851 93.1278C88.359 93.1278 87.9414 93.0362 87.5323 92.853C87.1274 92.6697 86.7908 92.3906 86.5223 92.0156C86.2581 91.6406 86.126 91.1676 86.126 90.5966V80.8295Z" fill="#4B5563"/>
</g>
<defs>
<clipPath id="clip0_2010_1439">
<rect width="90" height="100" fill="white" transform="translate(0.79541)"/>
</clipPath>
<clipPath id="clip1_2010_1439">
<rect width="64" height="64" fill="white" transform="translate(13.7954)"/>
</clipPath>
</defs>
</svg>
