<svg width="53" height="100" viewBox="0 0 53 100" fill="none" xmlns="http://www.w3.org/2000/svg">
<g clip-path="url(#clip0_2010_1499)">
<g clip-path="url(#clip1_2010_1499)">
<path d="M26.3638 32C26.3638 29.171 27.4876 26.4579 29.488 24.4575C31.4884 22.4572 34.2015 21.3333 37.0304 21.3333C39.8594 21.3333 42.5725 22.4572 44.5729 24.4575C46.5733 26.4579 47.6971 29.171 47.6971 32C47.6971 34.829 46.5733 37.5421 44.5729 39.5425C42.5725 41.5429 39.8594 42.6667 37.0304 42.6667C34.2015 42.6667 31.4884 41.5429 29.488 39.5425C27.4876 37.5421 26.3638 34.829 26.3638 32Z" fill="#1ABCFE"/>
<path d="M5.03052 53.3333C5.03052 50.5043 6.15432 47.7912 8.15471 45.7909C10.1551 43.7905 12.8682 42.6667 15.6972 42.6667H26.3639V53.3333C26.3639 56.1623 25.24 58.8754 23.2397 60.8758C21.2393 62.8762 18.5262 64 15.6972 64C12.8682 64 10.1551 62.8762 8.15471 60.8758C6.15432 58.8754 5.03052 56.1623 5.03052 53.3333Z" fill="#0ACF83"/>
<path d="M26.3638 0V21.3333H37.0304C39.8594 21.3333 42.5725 20.2095 44.5729 18.2091C46.5733 16.2087 47.6971 13.4956 47.6971 10.6667C47.6971 7.83769 46.5733 5.12458 44.5729 3.12419C42.5725 1.12381 39.8594 0 37.0304 0L26.3638 0Z" fill="#FF7262"/>
<path d="M5.03052 10.6667C5.03052 13.4956 6.15432 16.2087 8.15471 18.2091C10.1551 20.2095 12.8682 21.3333 15.6972 21.3333H26.3639V0H15.6972C12.8682 0 10.1551 1.12381 8.15471 3.12419C6.15432 5.12458 5.03052 7.83769 5.03052 10.6667Z" fill="#F24E1E"/>
<path d="M5.03052 32C5.03052 34.829 6.15432 37.5421 8.15471 39.5425C10.1551 41.5429 12.8682 42.6667 15.6972 42.6667H26.3639V21.3333H15.6972C12.8682 21.3333 10.1551 22.4572 8.15471 24.4575C6.15432 26.4579 5.03052 29.171 5.03052 32Z" fill="#A259FF"/>
</g>
<path d="M1.949 93V79.9091H9.79843V81.3153H3.53422V85.7386H9.21036V87.1449H3.53422V93H1.949ZM12.3089 93V83.1818H13.8174V93H12.3089ZM13.076 81.5455C12.7819 81.5455 12.5284 81.4453 12.3153 81.245C12.1065 81.0447 12.0021 80.804 12.0021 80.5227C12.0021 80.2415 12.1065 80.0007 12.3153 79.8004C12.5284 79.6001 12.7819 79.5 13.076 79.5C13.37 79.5 13.6214 79.6001 13.8302 79.8004C14.0433 80.0007 14.1498 80.2415 14.1498 80.5227C14.1498 80.804 14.0433 81.0447 13.8302 81.245C13.6214 81.4453 13.37 81.5455 13.076 81.5455ZM20.5435 96.8864C19.8148 96.8864 19.1883 96.7926 18.6642 96.6051C18.14 96.4219 17.7033 96.179 17.3538 95.8764C17.0087 95.5781 16.7338 95.2585 16.5293 94.9176L17.731 94.0739C17.8673 94.2528 18.0399 94.4574 18.2487 94.6875C18.4575 94.9219 18.743 95.1243 19.1052 95.2947C19.4717 95.4695 19.9511 95.5568 20.5435 95.5568C21.3361 95.5568 21.9902 95.3651 22.5058 94.9815C23.0214 94.598 23.2793 93.9972 23.2793 93.179V91.1847H23.1514C23.0406 91.3636 22.8829 91.5852 22.6784 91.8494C22.4781 92.1094 22.1883 92.3416 21.8091 92.5462C21.4341 92.7464 20.927 92.8466 20.2878 92.8466C19.4952 92.8466 18.7835 92.6591 18.1528 92.2841C17.5264 91.9091 17.03 91.3636 16.6635 90.6477C16.3013 89.9318 16.1202 89.0625 16.1202 88.0398C16.1202 87.0341 16.297 86.1584 16.6507 85.4126C17.0044 84.6626 17.4966 84.0831 18.1273 83.674C18.7579 83.2607 19.4866 83.054 20.3133 83.054C20.9525 83.054 21.4597 83.1605 21.8347 83.3736C22.2139 83.5824 22.5037 83.821 22.704 84.0895C22.9085 84.3537 23.0662 84.571 23.177 84.7415H23.3304V83.1818H24.7878V93.2812C24.7878 94.125 24.596 94.8111 24.2125 95.3395C23.8332 95.8722 23.3219 96.2621 22.6784 96.5092C22.0392 96.7607 21.3275 96.8864 20.5435 96.8864ZM20.4923 91.4915C21.0974 91.4915 21.6088 91.353 22.0264 91.076C22.444 90.799 22.7615 90.4006 22.9788 89.8807C23.1962 89.3608 23.3048 88.7386 23.3048 88.0142C23.3048 87.3068 23.1983 86.6825 22.9852 86.1413C22.7722 85.6001 22.4568 85.1761 22.0392 84.8693C21.6216 84.5625 21.106 84.4091 20.4923 84.4091C19.8531 84.4091 19.3204 84.571 18.8943 84.8949C18.4724 85.2187 18.155 85.6534 17.9419 86.1989C17.7331 86.7443 17.6287 87.3494 17.6287 88.0142C17.6287 88.696 17.7352 89.299 17.9483 89.8232C18.1656 90.343 18.4852 90.7521 18.9071 91.0504C19.3332 91.3445 19.8616 91.4915 20.4923 91.4915ZM27.5491 93V83.1818H29.0065V84.7159H29.1344C29.3389 84.1918 29.6692 83.7848 30.1251 83.495C30.5811 83.201 31.1287 83.054 31.7679 83.054C32.4156 83.054 32.9547 83.201 33.3851 83.495C33.8197 83.7848 34.1585 84.1918 34.4014 84.7159H34.5037C34.7551 84.2088 35.1322 83.8061 35.6351 83.5078C36.1379 83.2053 36.7409 83.054 37.444 83.054C38.3219 83.054 39.0399 83.3288 39.5981 83.8786C40.1564 84.424 40.4355 85.2741 40.4355 86.429V93H38.927V86.429C38.927 85.7045 38.7288 85.1868 38.3325 84.8757C37.9362 84.5646 37.4696 84.4091 36.9327 84.4091C36.2423 84.4091 35.7075 84.6179 35.3283 85.0355C34.949 85.4489 34.7594 85.973 34.7594 86.608V93H33.2253V86.2756C33.2253 85.7173 33.0442 85.2678 32.682 84.9268C32.3197 84.5817 31.8531 84.4091 31.2821 84.4091C30.89 84.4091 30.5236 84.5135 30.1827 84.7223C29.846 84.9311 29.5733 85.2209 29.3645 85.5916C29.1599 85.9581 29.0577 86.3821 29.0577 86.8636V93H27.5491ZM46.0829 93.2301C45.4607 93.2301 44.8961 93.1129 44.389 92.8786C43.8819 92.6399 43.4792 92.2969 43.1809 91.8494C42.8826 91.3977 42.7334 90.8523 42.7334 90.2131C42.7334 89.6506 42.8442 89.1946 43.0658 88.8452C43.2874 88.4915 43.5836 88.2145 43.9543 88.0142C44.3251 87.8139 44.7342 87.6648 45.1816 87.5668C45.6333 87.4645 46.0871 87.3835 46.5431 87.3239C47.1397 87.2472 47.6234 87.1896 47.9941 87.1513C48.3691 87.1087 48.6418 87.0384 48.8123 86.9403C48.987 86.8423 49.0744 86.6719 49.0744 86.429V86.3778C49.0744 85.7472 48.9018 85.2571 48.5566 84.9077C48.2157 84.5582 47.6979 84.3835 47.0033 84.3835C46.2832 84.3835 45.7185 84.5412 45.3094 84.8565C44.9003 85.1719 44.6127 85.5085 44.4465 85.8665L43.0147 85.3551C43.2704 84.7585 43.6113 84.294 44.0374 83.9616C44.4678 83.625 44.9366 83.3906 45.4437 83.2585C45.955 83.1222 46.4579 83.054 46.9522 83.054C47.2675 83.054 47.6297 83.0923 48.0388 83.169C48.4522 83.2415 48.8506 83.3928 49.2342 83.6229C49.6219 83.853 49.9437 84.2003 50.1994 84.6648C50.455 85.1293 50.5829 85.7514 50.5829 86.5312V93H49.0744V91.6705H48.9976C48.8954 91.8835 48.7249 92.1115 48.4863 92.3544C48.2476 92.5973 47.9302 92.804 47.5339 92.9744C47.1376 93.1449 46.6539 93.2301 46.0829 93.2301ZM46.313 91.875C46.9096 91.875 47.4124 91.7578 47.8215 91.5234C48.2349 91.2891 48.5459 90.9865 48.7547 90.6158C48.9678 90.245 49.0744 89.8551 49.0744 89.446V88.0653C49.0104 88.142 48.8698 88.2124 48.6525 88.2763C48.4394 88.3359 48.1922 88.3892 47.911 88.4361C47.634 88.4787 47.3634 88.517 47.0992 88.5511C46.8393 88.581 46.6283 88.6065 46.4664 88.6278C46.0744 88.679 45.7079 88.7621 45.367 88.8771C45.0303 88.9879 44.7576 89.1562 44.5488 89.3821C44.3442 89.6037 44.242 89.9062 44.242 90.2898C44.242 90.8139 44.4359 91.2102 44.8236 91.4787C45.2157 91.7429 45.7121 91.875 46.313 91.875Z" fill="#4B5563"/>
</g>
<defs>
<clipPath id="clip0_2010_1499">
<rect width="52" height="100" fill="white" transform="translate(0.36377)"/>
</clipPath>
<clipPath id="clip1_2010_1499">
<rect width="42.6667" height="64" fill="white" transform="translate(5.03052)"/>
</clipPath>
</defs>
</svg>
