<svg width="85" height="100" viewBox="0 0 85 100" fill="none" xmlns="http://www.w3.org/2000/svg">
<g clip-path="url(#clip0_2010_1483)">
<g clip-path="url(#clip1_2010_1483)">
<path d="M47.753 7.13325C45.055 3.94632 42.7318 0.709589 42.2572 0.0373468C42.2072 -0.0124489 42.1322 -0.0124489 42.0823 0.0373468C41.6076 0.709589 39.2844 3.94632 36.5864 7.13325C13.4291 36.5376 40.2337 56.3813 40.2337 56.3813L40.4585 56.5306C40.6584 59.5932 41.158 64 41.158 64H42.1572H43.1565C43.1565 64 43.6561 59.618 43.8559 56.5306L44.0807 56.3565C44.1057 56.3565 70.9103 36.5376 47.753 7.13325ZM42.1572 55.933C42.1572 55.933 40.9581 54.9123 40.6334 54.3893V54.3397L42.0823 22.3209C42.0823 22.2213 42.2322 22.2213 42.2322 22.3209L43.6811 54.3397V54.3893C43.3563 54.9123 42.1572 55.933 42.1572 55.933Z" fill="#00684A"/>
</g>
<path d="M1.63064 79.9091H3.52268L7.97155 90.7756H8.12496L12.5738 79.9091H14.4659V93H12.9829V83.054H12.8551L8.76416 93H7.33234L3.24143 83.054H3.11359V93H1.63064V79.9091ZM21.4284 93.2045C20.542 93.2045 19.7643 92.9936 19.0953 92.5717C18.4305 92.1499 17.9106 91.5597 17.5356 90.8011C17.1649 90.0426 16.9795 89.1562 16.9795 88.142C16.9795 87.1193 17.1649 86.2266 17.5356 85.4638C17.9106 84.701 18.4305 84.1087 19.0953 83.6868C19.7643 83.2649 20.542 83.054 21.4284 83.054C22.3148 83.054 23.0903 83.2649 23.7551 83.6868C24.4241 84.1087 24.944 84.701 25.3148 85.4638C25.6898 86.2266 25.8773 87.1193 25.8773 88.142C25.8773 89.1562 25.6898 90.0426 25.3148 90.8011C24.944 91.5597 24.4241 92.1499 23.7551 92.5717C23.0903 92.9936 22.3148 93.2045 21.4284 93.2045ZM21.4284 91.8494C22.1017 91.8494 22.6557 91.6768 23.0903 91.3317C23.525 90.9865 23.8467 90.5327 24.0555 89.9702C24.2643 89.4077 24.3687 88.7983 24.3687 88.142C24.3687 87.4858 24.2643 86.8743 24.0555 86.3075C23.8467 85.7408 23.525 85.2827 23.0903 84.9332C22.6557 84.5838 22.1017 84.4091 21.4284 84.4091C20.7551 84.4091 20.2011 84.5838 19.7665 84.9332C19.3318 85.2827 19.0101 85.7408 18.8013 86.3075C18.5925 86.8743 18.4881 87.4858 18.4881 88.142C18.4881 88.7983 18.5925 89.4077 18.8013 89.9702C19.0101 90.5327 19.3318 90.9865 19.7665 91.3317C20.2011 91.6768 20.7551 91.8494 21.4284 91.8494ZM29.6885 87.0938V93H28.18V83.1818H29.6374V84.7159H29.7652C29.9953 84.2173 30.3448 83.8168 30.8135 83.5142C31.2823 83.2074 31.8874 83.054 32.6289 83.054C33.2936 83.054 33.8753 83.1903 34.3739 83.4631C34.8725 83.7315 35.2603 84.1406 35.5372 84.6903C35.8142 85.2358 35.9527 85.9261 35.9527 86.7614V93H34.4442V86.8636C34.4442 86.0923 34.2439 85.4915 33.8434 85.0611C33.4428 84.6264 32.8931 84.4091 32.1942 84.4091C31.7127 84.4091 31.2823 84.5135 30.903 84.7223C30.528 84.9311 30.2318 85.2358 30.0145 85.6364C29.7972 86.0369 29.6885 86.5227 29.6885 87.0938ZM42.6724 96.8864C41.9437 96.8864 41.3172 96.7926 40.7931 96.6051C40.269 96.4219 39.8322 96.179 39.4827 95.8764C39.1376 95.5781 38.8627 95.2585 38.6582 94.9176L39.8599 94.0739C39.9962 94.2528 40.1688 94.4574 40.3776 94.6875C40.5864 94.9219 40.8719 95.1243 41.2342 95.2947C41.6006 95.4695 42.08 95.5568 42.6724 95.5568C43.465 95.5568 44.1191 95.3651 44.6347 94.9815C45.1503 94.598 45.4082 93.9972 45.4082 93.179V91.1847H45.2803C45.1695 91.3636 45.0119 91.5852 44.8073 91.8494C44.607 92.1094 44.3172 92.3416 43.938 92.5462C43.563 92.7464 43.0559 92.8466 42.4167 92.8466C41.6241 92.8466 40.9124 92.6591 40.2817 92.2841C39.6553 91.9091 39.1589 91.3636 38.7924 90.6477C38.4302 89.9318 38.2491 89.0625 38.2491 88.0398C38.2491 87.0341 38.4259 86.1584 38.7796 85.4126C39.1333 84.6626 39.6255 84.0831 40.2562 83.674C40.8869 83.2607 41.6155 83.054 42.4422 83.054C43.0815 83.054 43.5886 83.1605 43.9636 83.3736C44.3428 83.5824 44.6326 83.821 44.8329 84.0895C45.0374 84.3537 45.1951 84.571 45.3059 84.7415H45.4593V83.1818H46.9167V93.2812C46.9167 94.125 46.7249 94.8111 46.3414 95.3395C45.9621 95.8722 45.4508 96.2621 44.8073 96.5092C44.1681 96.7607 43.4565 96.8864 42.6724 96.8864ZM42.6212 91.4915C43.2263 91.4915 43.7377 91.353 44.1553 91.076C44.5729 90.799 44.8904 90.4006 45.1077 89.8807C45.3251 89.3608 45.4337 88.7386 45.4337 88.0142C45.4337 87.3068 45.3272 86.6825 45.1141 86.1413C44.9011 85.6001 44.5857 85.1761 44.1681 84.8693C43.7505 84.5625 43.2349 84.4091 42.6212 84.4091C41.982 84.4091 41.4494 84.571 41.0232 84.8949C40.6013 85.2187 40.2839 85.6534 40.0708 86.1989C39.862 86.7443 39.7576 87.3494 39.7576 88.0142C39.7576 88.696 39.8641 89.299 40.0772 89.8232C40.2945 90.343 40.6141 90.7521 41.036 91.0504C41.4621 91.3445 41.9905 91.4915 42.6212 91.4915ZM53.6667 93.2045C52.7803 93.2045 52.0026 92.9936 51.3336 92.5717C50.6688 92.1499 50.1489 91.5597 49.7739 90.8011C49.4032 90.0426 49.2178 89.1562 49.2178 88.142C49.2178 87.1193 49.4032 86.2266 49.7739 85.4638C50.1489 84.701 50.6688 84.1087 51.3336 83.6868C52.0026 83.2649 52.7803 83.054 53.6667 83.054C54.553 83.054 55.3286 83.2649 55.9934 83.6868C56.6624 84.1087 57.1823 84.701 57.553 85.4638C57.928 86.2266 58.1155 87.1193 58.1155 88.142C58.1155 89.1562 57.928 90.0426 57.553 90.8011C57.1823 91.5597 56.6624 92.1499 55.9934 92.5717C55.3286 92.9936 54.553 93.2045 53.6667 93.2045ZM53.6667 91.8494C54.34 91.8494 54.894 91.6768 55.3286 91.3317C55.7633 90.9865 56.085 90.5327 56.2938 89.9702C56.5026 89.4077 56.607 88.7983 56.607 88.142C56.607 87.4858 56.5026 86.8743 56.2938 86.3075C56.085 85.7408 55.7633 85.2827 55.3286 84.9332C54.894 84.5838 54.34 84.4091 53.6667 84.4091C52.9934 84.4091 52.4394 84.5838 52.0047 84.9332C51.5701 85.2827 51.2484 85.7408 51.0396 86.3075C50.8307 86.8743 50.7263 87.4858 50.7263 88.142C50.7263 88.7983 50.8307 89.4077 51.0396 89.9702C51.2484 90.5327 51.5701 90.9865 52.0047 91.3317C52.4394 91.6768 52.9934 91.8494 53.6667 91.8494ZM64.6626 93H60.6228V79.9091H64.8416C66.1115 79.9091 67.1981 80.1712 68.1015 80.6953C69.0049 81.2152 69.6974 81.9631 70.1789 82.9389C70.6605 83.9105 70.9012 85.0739 70.9012 86.429C70.9012 87.7926 70.6583 88.9666 70.1725 89.951C69.6867 90.9311 68.9794 91.6854 68.0504 92.2138C67.1214 92.7379 65.9921 93 64.6626 93ZM62.2081 91.5938H64.5603C65.6427 91.5938 66.5397 91.3849 67.2514 90.9673C67.963 90.5497 68.4936 89.9553 68.843 89.1839C69.1924 88.4126 69.3671 87.4943 69.3671 86.429C69.3671 85.3722 69.1946 84.4624 68.8494 83.6996C68.5042 82.9325 67.9886 82.3445 67.3025 81.9354C66.6164 81.522 65.762 81.3153 64.7393 81.3153H62.2081V91.5938ZM73.5603 93V79.9091H78.137C79.049 79.9091 79.8011 80.0668 80.3934 80.3821C80.9858 80.6932 81.4268 81.1129 81.7166 81.6413C82.0063 82.1655 82.1512 82.7472 82.1512 83.3864C82.1512 83.9489 82.0511 84.4134 81.8508 84.7798C81.6548 85.1463 81.3948 85.4361 81.071 85.6491C80.7514 85.8622 80.4041 86.0199 80.0291 86.1222V86.25C80.4296 86.2756 80.8323 86.4162 81.2372 86.6719C81.642 86.9276 81.9808 87.294 82.2535 87.7713C82.5262 88.2486 82.6626 88.8324 82.6626 89.5227C82.6626 90.179 82.5135 90.7692 82.2152 91.2933C81.9169 91.8175 81.446 92.233 80.8025 92.5398C80.159 92.8466 79.3217 93 78.2904 93H73.5603ZM75.1456 91.5938H78.2904C79.326 91.5938 80.061 91.3935 80.4957 90.9929C80.9346 90.5881 81.1541 90.098 81.1541 89.5227C81.1541 89.0795 81.0411 88.6705 80.8153 88.2955C80.5894 87.9162 80.2677 87.6136 79.8501 87.3878C79.4325 87.1577 78.9382 87.0426 78.3671 87.0426H75.1456V91.5938ZM75.1456 85.6619H78.0859C78.5632 85.6619 78.9936 85.5682 79.3771 85.3807C79.7649 85.1932 80.0717 84.929 80.2975 84.5881C80.5277 84.2472 80.6427 83.8466 80.6427 83.3864C80.6427 82.8111 80.4424 82.3232 80.0419 81.9226C79.6413 81.5178 79.0063 81.3153 78.137 81.3153H75.1456V85.6619Z" fill="#4B5563"/>
</g>
<defs>
<clipPath id="clip0_2010_1483">
<rect width="84" height="100" fill="white" transform="translate(0.0454102)"/>
</clipPath>
<clipPath id="clip1_2010_1483">
<rect width="29.7674" height="64" fill="white" transform="translate(27.1616)"/>
</clipPath>
</defs>
</svg>
