<svg width="71" height="100" viewBox="0 0 71 100" fill="none" xmlns="http://www.w3.org/2000/svg">
<g clip-path="url(#clip0_2010_1444)">
<g clip-path="url(#clip1_2010_1444)">
<path d="M35.4999 38.7725C39.1723 38.7725 42.1493 35.7403 42.1493 32C42.1493 28.2597 39.1723 25.2275 35.4999 25.2275C31.8276 25.2275 28.8506 28.2597 28.8506 32C28.8506 35.7403 31.8276 38.7725 35.4999 38.7725Z" fill="#087EA4"/>
<path d="M35.4999 47.2381C53.8616 47.2381 68.7467 40.4158 68.7467 32C68.7467 23.5842 53.8616 16.7619 35.4999 16.7619C17.1383 16.7619 2.25317 23.5842 2.25317 32C2.25317 40.4158 17.1383 47.2381 35.4999 47.2381Z" stroke="#087EA4" stroke-width="3"/>
<path d="M22.5433 39.619C31.7242 55.8152 44.9676 65.5336 52.1234 61.3257C59.2791 57.1178 57.6375 40.5771 48.4566 24.3809C39.2758 8.1848 26.0324 -1.53361 18.8766 2.67427C11.7209 6.88215 13.3625 23.4229 22.5433 39.619Z" stroke="#087EA4" stroke-width="3"/>
<path d="M22.5432 24.3809C13.3623 40.5771 11.7207 57.1178 18.8764 61.3257C26.0322 65.5336 39.2756 55.8152 48.4565 39.619C57.6373 23.4229 59.2789 6.88216 52.1232 2.67427C44.9674 -1.53361 31.724 8.1848 22.5432 24.3809Z" stroke="#087EA4" stroke-width="3"/>
</g>
<path d="M12.5852 93V79.9091H17.0085C18.0313 79.9091 18.8707 80.0838 19.527 80.4332C20.1832 80.7784 20.669 81.2536 20.9844 81.8587C21.2997 82.4638 21.4574 83.152 21.4574 83.9233C21.4574 84.6946 21.2997 85.3786 20.9844 85.9751C20.669 86.5717 20.1854 87.0405 19.5334 87.3814C18.8814 87.718 18.0483 87.8864 17.0341 87.8864H13.4545V86.4545H16.983C17.6818 86.4545 18.2443 86.3523 18.6705 86.1477C19.1009 85.9432 19.4119 85.6534 19.6037 85.2784C19.7997 84.8991 19.8977 84.4474 19.8977 83.9233C19.8977 83.3991 19.7997 82.9411 19.6037 82.549C19.4077 82.157 19.0945 81.8544 18.6641 81.6413C18.2337 81.424 17.6648 81.3153 16.9574 81.3153H14.1705V93H12.5852ZM18.7472 87.1193L21.9688 93H20.1278L16.9574 87.1193H18.7472ZM27.9054 93.2045C26.9593 93.2045 26.1433 92.9957 25.4572 92.5781C24.7754 92.1562 24.2491 91.5682 23.8784 90.8139C23.5119 90.0554 23.3287 89.1733 23.3287 88.1676C23.3287 87.1619 23.5119 86.2756 23.8784 85.5085C24.2491 84.7372 24.7647 84.1364 25.4252 83.706C26.09 83.2713 26.8656 83.054 27.752 83.054C28.2633 83.054 28.7683 83.1392 29.2669 83.3097C29.7654 83.4801 30.2193 83.7571 30.6284 84.1406C31.0375 84.5199 31.3635 85.0227 31.6064 85.6491C31.8493 86.2756 31.9707 87.0469 31.9707 87.9631V88.6023H24.4025V87.2983H30.4366C30.4366 86.7443 30.3258 86.25 30.1042 85.8153C29.8869 85.3807 29.5758 85.0376 29.171 84.7862C28.7704 84.5348 28.2974 84.4091 27.752 84.4091C27.1511 84.4091 26.6312 84.5582 26.1923 84.8565C25.7576 85.1506 25.4231 85.5341 25.1887 86.0071C24.9544 86.4801 24.8372 86.9872 24.8372 87.5284V88.3977C24.8372 89.1392 24.965 89.7678 25.2207 90.2834C25.4806 90.7947 25.8407 91.1847 26.301 91.4531C26.7612 91.7173 27.296 91.8494 27.9054 91.8494C28.3017 91.8494 28.6596 91.794 28.9792 91.6832C29.3031 91.5682 29.5822 91.3977 29.8166 91.1719C30.051 90.9418 30.2321 90.6562 30.3599 90.3153L31.8173 90.7244C31.6639 91.2188 31.4061 91.6534 31.0439 92.0284C30.6816 92.3991 30.2342 92.6889 29.7015 92.8977C29.1689 93.1023 28.5701 93.2045 27.9054 93.2045ZM37.1547 93.2301C36.5325 93.2301 35.9679 93.1129 35.4608 92.8786C34.9537 92.6399 34.551 92.2969 34.2527 91.8494C33.9544 91.3977 33.8052 90.8523 33.8052 90.2131C33.8052 89.6506 33.916 89.1946 34.1376 88.8452C34.3592 88.4915 34.6554 88.2145 35.0261 88.0142C35.3968 87.8139 35.8059 87.6648 36.2534 87.5668C36.7051 87.4645 37.1589 87.3835 37.6149 87.3239C38.2115 87.2472 38.6951 87.1896 39.0659 87.1513C39.4409 87.1087 39.7136 87.0384 39.8841 86.9403C40.0588 86.8423 40.1461 86.6719 40.1461 86.429V86.3778C40.1461 85.7472 39.9735 85.2571 39.6284 84.9077C39.2875 84.5582 38.7697 84.3835 38.0751 84.3835C37.3549 84.3835 36.7903 84.5412 36.3812 84.8565C35.9721 85.1719 35.6845 85.5085 35.5183 85.8665L34.0865 85.3551C34.3422 84.7585 34.6831 84.294 35.1092 83.9616C35.5396 83.625 36.0083 83.3906 36.5154 83.2585C37.0268 83.1222 37.5297 83.054 38.024 83.054C38.3393 83.054 38.7015 83.0923 39.1106 83.169C39.524 83.2415 39.9224 83.3928 40.3059 83.6229C40.6937 83.853 41.0154 84.2003 41.2711 84.6648C41.5268 85.1293 41.6547 85.7514 41.6547 86.5312V93H40.1461V91.6705H40.0694C39.9672 91.8835 39.7967 92.1115 39.5581 92.3544C39.3194 92.5973 39.002 92.804 38.6056 92.9744C38.2093 93.1449 37.7257 93.2301 37.1547 93.2301ZM37.3848 91.875C37.9814 91.875 38.4842 91.7578 38.8933 91.5234C39.3066 91.2891 39.6177 90.9865 39.8265 90.6158C40.0396 90.245 40.1461 89.8551 40.1461 89.446V88.0653C40.0822 88.142 39.9416 88.2124 39.7243 88.2763C39.5112 88.3359 39.264 88.3892 38.9828 88.4361C38.7058 88.4787 38.4352 88.517 38.171 88.5511C37.911 88.581 37.7001 88.6065 37.5382 88.6278C37.1461 88.679 36.7797 88.7621 36.4387 88.8771C36.1021 88.9879 35.8294 89.1562 35.6206 89.3821C35.416 89.6037 35.3137 89.9062 35.3137 90.2898C35.3137 90.8139 35.5076 91.2102 35.8954 91.4787C36.2875 91.7429 36.7839 91.875 37.3848 91.875ZM48.3967 93.2045C47.4762 93.2045 46.6836 92.9872 46.0188 92.5526C45.354 92.1179 44.8427 91.5192 44.4847 90.7564C44.1268 89.9936 43.9478 89.1222 43.9478 88.142C43.9478 87.1449 44.131 86.2649 44.4975 85.5021C44.8683 84.7351 45.3839 84.1364 46.0444 83.706C46.7092 83.2713 47.4847 83.054 48.3711 83.054C49.0614 83.054 49.6836 83.1818 50.2376 83.4375C50.7915 83.6932 51.2454 84.0511 51.5991 84.5114C51.9528 84.9716 52.1722 85.5085 52.2575 86.1222H50.7489C50.6339 85.6747 50.3782 85.2784 49.9819 84.9332C49.5898 84.5838 49.0614 84.4091 48.3967 84.4091C47.8086 84.4091 47.293 84.5625 46.8498 84.8693C46.4109 85.1719 46.0678 85.6001 45.8207 86.1541C45.5778 86.7038 45.4563 87.3494 45.4563 88.0909C45.4563 88.8494 45.5756 89.5099 45.8143 90.0724C46.0572 90.6349 46.3981 91.0717 46.837 91.3828C47.2802 91.6939 47.8001 91.8494 48.3967 91.8494C48.7887 91.8494 49.1445 91.7812 49.4641 91.6449C49.7837 91.5085 50.0543 91.3125 50.2759 91.0568C50.4975 90.8011 50.6552 90.4943 50.7489 90.1364H52.2575C52.1722 90.7159 51.9613 91.2379 51.6246 91.7024C51.2923 92.1626 50.8512 92.5291 50.3015 92.8018C49.756 93.0703 49.1211 93.2045 48.3967 93.2045ZM58.7326 83.1818V84.4602H53.6445V83.1818H58.7326ZM55.1275 80.8295H56.636V90.1875C56.636 90.6136 56.6978 90.9332 56.8214 91.1463C56.9492 91.3551 57.1112 91.4957 57.3072 91.5682C57.5075 91.6364 57.7184 91.6705 57.94 91.6705C58.1062 91.6705 58.2425 91.6619 58.3491 91.6449C58.4556 91.6236 58.5408 91.6065 58.6048 91.5938L58.9116 92.9489C58.8093 92.9872 58.6665 93.0256 58.4833 93.0639C58.3001 93.1065 58.0678 93.1278 57.7866 93.1278C57.3604 93.1278 56.9428 93.0362 56.5337 92.853C56.1289 92.6697 55.7923 92.3906 55.5238 92.0156C55.2596 91.6406 55.1275 91.1676 55.1275 90.5966V80.8295Z" fill="#4B5563"/>
</g>
<defs>
<clipPath id="clip0_2010_1444">
<rect width="69.8182" height="100" fill="white" transform="translate(0.59082)"/>
</clipPath>
<clipPath id="clip1_2010_1444">
<rect width="69.8182" height="64" fill="white" transform="translate(0.59082)"/>
</clipPath>
</defs>
</svg>
