<svg width="65" height="100" viewBox="0 0 65 100" fill="none" xmlns="http://www.w3.org/2000/svg">
<g clip-path="url(#clip0_2010_1521)">
<path d="M56.9486 29.4667L35.2153 7.73332C34.5486 7.06666 33.6153 6.66666 32.682 6.66666C31.7486 6.66666 30.8153 7.06666 30.1486 7.73332L25.482 12.4L30.9486 17.8667C31.482 17.6 32.0153 17.4667 32.682 17.4667C34.9486 17.4667 36.682 19.2 36.682 21.4667C36.682 22.1333 36.5486 22.6667 36.282 23.2L41.6153 28.5333C42.1486 28.2667 42.682 28.1333 43.3486 28.1333C45.6153 28.1333 47.3486 29.8667 47.3486 32.1333C47.3486 34.4 45.6153 36.1333 43.3486 36.1333C41.082 36.1333 39.3486 34.4 39.3486 32.1333C39.3486 31.4667 39.482 30.9333 39.7486 30.4L34.4153 25.0667C34.282 25.0667 34.1486 25.2 34.0153 25.2V39.0667C35.6153 39.6 36.682 41.0667 36.682 42.8C36.682 45.0667 34.9486 46.8 32.682 46.8C30.4153 46.8 28.682 45.0667 28.682 42.8C28.682 41.0667 29.7486 39.6 31.3486 39.0667V25.0667C29.7486 24.5333 28.682 23.0667 28.682 21.3333C28.682 20.6667 28.8153 20.1333 29.082 19.6L23.6153 14.1333L8.4153 29.4667C7.74863 30.1333 7.34863 31.0667 7.34863 32C7.34863 32.9333 7.74863 33.8667 8.4153 34.5333L30.1486 56.2667C30.8153 56.9333 31.7486 57.3333 32.682 57.3333C33.6153 57.3333 34.5486 56.9333 35.2153 56.2667L56.9486 34.5333C57.6153 33.8667 58.0153 32.9333 58.0153 32C58.0153 31.0667 57.6153 30.1333 56.9486 29.4667Z" fill="#F4511E"/>
<path d="M30.716 84C30.5754 83.5696 30.39 83.1839 30.1599 82.843C29.934 82.4979 29.6634 82.2038 29.3481 81.9609C29.037 81.718 28.6833 81.5327 28.287 81.4048C27.8907 81.277 27.456 81.2131 26.983 81.2131C26.2075 81.2131 25.5022 81.4134 24.8673 81.8139C24.2323 82.2145 23.7273 82.8047 23.3523 83.5845C22.9773 84.3643 22.7898 85.321 22.7898 86.4545C22.7898 87.5881 22.9795 88.5447 23.3587 89.3246C23.738 90.1044 24.2515 90.6946 24.8992 91.0952C25.5469 91.4957 26.2756 91.696 27.0853 91.696C27.8353 91.696 28.4958 91.5362 29.0668 91.2166C29.6421 90.8928 30.0896 90.4368 30.4092 89.8487C30.733 89.2564 30.895 88.5597 30.895 87.7585L31.3807 87.8608H27.4432V86.4545H32.429V87.8608C32.429 88.9389 32.1989 89.8764 31.7387 90.6733C31.2827 91.4702 30.6521 92.0881 29.8467 92.527C29.0455 92.9616 28.1251 93.179 27.0853 93.179C25.9262 93.179 24.9077 92.9062 24.0299 92.3608C23.1563 91.8153 22.4745 91.0398 21.9844 90.0341C21.4986 89.0284 21.2557 87.8352 21.2557 86.4545C21.2557 85.419 21.3942 84.4879 21.6712 83.6612C21.9525 82.8303 22.3488 82.1229 22.8602 81.5391C23.3715 80.9553 23.9766 80.5078 24.6755 80.1967C25.3744 79.8857 26.1435 79.7301 26.983 79.7301C27.6734 79.7301 28.3168 79.8345 28.9134 80.0433C29.5143 80.2479 30.0491 80.5398 30.5178 80.919C30.9908 81.294 31.385 81.7436 31.7004 82.2678C32.0157 82.7876 32.233 83.3651 32.3523 84H30.716ZM35.5548 93V83.1818H37.0633V93H35.5548ZM36.3218 81.5455C36.0278 81.5455 35.7742 81.4453 35.5611 81.245C35.3523 81.0447 35.2479 80.804 35.2479 80.5227C35.2479 80.2415 35.3523 80.0007 35.5611 79.8004C35.7742 79.6001 36.0278 79.5 36.3218 79.5C36.6158 79.5 36.8673 79.6001 37.0761 79.8004C37.2891 80.0007 37.3957 80.2415 37.3957 80.5227C37.3957 80.804 37.2891 81.0447 37.0761 81.245C36.8673 81.4453 36.6158 81.5455 36.3218 81.5455ZM44.0961 83.1818V84.4602H39.0081V83.1818H44.0961ZM40.491 80.8295H41.9995V90.1875C41.9995 90.6136 42.0613 90.9332 42.1849 91.1463C42.3127 91.3551 42.4747 91.4957 42.6707 91.5682C42.871 91.6364 43.0819 91.6705 43.3035 91.6705C43.4697 91.6705 43.6061 91.6619 43.7126 91.6449C43.8191 91.6236 43.9044 91.6065 43.9683 91.5938L44.2751 92.9489C44.1728 92.9872 44.0301 93.0256 43.8468 93.0639C43.6636 93.1065 43.4314 93.1278 43.1501 93.1278C42.724 93.1278 42.3064 93.0362 41.8973 92.853C41.4924 92.6697 41.1558 92.3906 40.8873 92.0156C40.6231 91.6406 40.491 91.1676 40.491 90.5966V80.8295Z" fill="#4B5563"/>
</g>
<defs>
<clipPath id="clip0_2010_1521">
<rect width="64" height="100" fill="white" transform="translate(0.681885)"/>
</clipPath>
</defs>
</svg>
