<svg width="66" height="100" viewBox="0 0 66 100" fill="none" xmlns="http://www.w3.org/2000/svg">
<g clip-path="url(#clip0_2010_1462)">
<g clip-path="url(#clip1_2010_1462)">
<path d="M32.8041 64C31.9461 64 31.1453 63.7668 30.4018 63.3585L22.7944 58.7517C21.6505 58.1102 22.2224 57.877 22.5657 57.7603C24.11 57.2355 24.396 57.1189 25.9975 56.1858C26.1691 56.0692 26.3979 56.1275 26.5695 56.2442L32.4037 59.8014C32.6325 59.918 32.9185 59.918 33.09 59.8014L55.912 46.3307C56.1408 46.214 56.2552 45.9808 56.2552 45.6892V18.806C56.2552 18.5145 56.1408 18.2812 55.912 18.1646L33.09 4.75222C32.8613 4.63559 32.5752 4.63559 32.4037 4.75222L9.58172 18.1646C9.35293 18.2812 9.23853 18.5728 9.23853 18.806V45.6892C9.23853 45.9224 9.35293 46.214 9.58172 46.3307L15.8163 50.0045C19.191 51.7539 21.3073 49.7129 21.3073 47.6719V21.1386C21.3073 20.7887 21.5933 20.4389 21.9937 20.4389H24.9108C25.2539 20.4389 25.5971 20.7305 25.5971 21.1386V47.6719C25.5971 52.2788 23.1376 54.9613 18.8477 54.9613C17.5322 54.9613 16.5027 54.9613 13.5856 53.5033L7.5798 50.0045C6.09266 49.1297 5.17749 47.4969 5.17749 45.7475V18.8644C5.17749 17.115 6.09266 15.4822 7.5798 14.6074L30.4018 1.1367C31.8317 0.320298 33.7764 0.320298 35.2064 1.1367L58.0283 14.6074C59.5155 15.4822 60.4306 17.115 60.4306 18.8644V45.7475C60.4306 47.4969 59.5155 49.1297 58.0283 50.0045L35.2064 63.4752C34.52 63.7668 33.662 64 32.8041 64Z" fill="#5FA04E"/>
<path d="M39.8966 45.5142C29.887 45.5142 27.8279 40.849 27.8279 36.8836C27.8279 36.5338 28.1138 36.1839 28.5142 36.1839H31.4885C31.8317 36.1839 32.1177 36.4171 32.1177 36.767C32.5753 39.8577 33.8908 41.3739 39.9538 41.3739C44.7584 41.3739 46.8176 40.2659 46.8176 37.6417C46.8176 36.1256 46.2456 35.0176 38.7526 34.2594C32.5181 33.618 28.6287 32.2185 28.6287 27.1451C28.6287 22.4215 32.5181 19.6225 39.0387 19.6225C46.3599 19.6225 49.9634 22.1883 50.421 27.7865C50.421 27.9615 50.3638 28.1364 50.2494 28.3114C50.135 28.428 49.9634 28.5446 49.7918 28.5446H46.7604C46.4743 28.5446 46.1884 28.3114 46.1312 28.0198C45.4448 24.8125 43.6716 23.7628 38.9815 23.7628C33.7192 23.7628 33.0901 25.6289 33.0901 27.0284C33.0901 28.7196 33.8337 29.2444 40.9262 30.1775C47.9615 31.1105 51.279 32.4517 51.279 37.4668C51.279 42.5985 47.1035 45.5142 39.8966 45.5142Z" fill="#5FA04E"/>
</g>
<path d="M12.1705 79.9091V93H10.6364L3.50289 82.7216H3.37504V93H1.78982V79.9091H3.32391L10.483 90.2131H10.6108V79.9091H12.1705ZM19.1266 93.2045C18.2403 93.2045 17.4626 92.9936 16.7935 92.5717C16.1288 92.1499 15.6089 91.5597 15.2339 90.8011C14.8631 90.0426 14.6778 89.1562 14.6778 88.142C14.6778 87.1193 14.8631 86.2266 15.2339 85.4638C15.6089 84.701 16.1288 84.1087 16.7935 83.6868C17.4626 83.2649 18.2403 83.054 19.1266 83.054C20.013 83.054 20.7886 83.2649 21.4533 83.6868C22.1224 84.1087 22.6423 84.701 23.013 85.4638C23.388 86.2266 23.5755 87.1193 23.5755 88.142C23.5755 89.1562 23.388 90.0426 23.013 90.8011C22.6423 91.5597 22.1224 92.1499 21.4533 92.5717C20.7886 92.9936 20.013 93.2045 19.1266 93.2045ZM19.1266 91.8494C19.7999 91.8494 20.3539 91.6768 20.7886 91.3317C21.2232 90.9865 21.545 90.5327 21.7538 89.9702C21.9626 89.4077 22.067 88.7983 22.067 88.142C22.067 87.4858 21.9626 86.8743 21.7538 86.3075C21.545 85.7408 21.2232 85.2827 20.7886 84.9332C20.3539 84.5838 19.7999 84.4091 19.1266 84.4091C18.4533 84.4091 17.8994 84.5838 17.4647 84.9332C17.0301 85.2827 16.7083 85.7408 16.4995 86.3075C16.2907 86.8743 16.1863 87.4858 16.1863 88.142C16.1863 88.7983 16.2907 89.4077 16.4995 89.9702C16.7083 90.5327 17.0301 90.9865 17.4647 91.3317C17.8994 91.6768 18.4533 91.8494 19.1266 91.8494ZM29.5856 93.2045C28.7674 93.2045 28.0451 92.9979 27.4187 92.5845C26.7923 92.1669 26.3022 91.5788 25.9486 90.8203C25.5949 90.0575 25.418 89.1562 25.418 88.1165C25.418 87.0852 25.5949 86.1903 25.9486 85.4318C26.3022 84.6733 26.7944 84.0874 27.4251 83.674C28.0558 83.2607 28.7845 83.054 29.6112 83.054C30.2504 83.054 30.7554 83.1605 31.1261 83.3736C31.5011 83.5824 31.7866 83.821 31.9826 84.0895C32.1829 84.3537 32.3385 84.571 32.4493 84.7415H32.5771V79.9091H34.0856V93H32.6282V91.4915H32.4493C32.3385 91.6705 32.1808 91.8963 31.9763 92.169C31.7717 92.4375 31.4798 92.6783 31.1005 92.8913C30.7213 93.1001 30.2163 93.2045 29.5856 93.2045ZM29.7902 91.8494C30.3953 91.8494 30.9066 91.6918 31.3243 91.3764C31.7419 91.0568 32.0593 90.6158 32.2767 90.0533C32.494 89.4865 32.6027 88.8324 32.6027 88.0909C32.6027 87.358 32.4961 86.7166 32.2831 86.1669C32.07 85.6129 31.7547 85.1825 31.337 84.8757C30.9194 84.5646 30.4038 84.4091 29.7902 84.4091C29.151 84.4091 28.6183 84.5732 28.1922 84.9013C27.7703 85.2251 27.4528 85.6662 27.2397 86.2244C27.0309 86.7784 26.9265 87.4006 26.9265 88.0909C26.9265 88.7898 27.0331 89.4247 27.2461 89.9957C27.4635 90.5625 27.7831 91.0142 28.2049 91.3509C28.6311 91.6832 29.1595 91.8494 29.7902 91.8494ZM41.1744 93.2045C40.2284 93.2045 39.4123 92.9957 38.7263 92.5781C38.0444 92.1562 37.5182 91.5682 37.1474 90.8139C36.7809 90.0554 36.5977 89.1733 36.5977 88.1676C36.5977 87.1619 36.7809 86.2756 37.1474 85.5085C37.5182 84.7372 38.0338 84.1364 38.6943 83.706C39.3591 83.2713 40.1346 83.054 41.021 83.054C41.5324 83.054 42.0373 83.1392 42.5359 83.3097C43.0345 83.4801 43.4883 83.7571 43.8974 84.1406C44.3065 84.5199 44.6325 85.0227 44.8754 85.6491C45.1183 86.2756 45.2397 87.0469 45.2397 87.9631V88.6023H37.6716V87.2983H43.7057C43.7057 86.7443 43.5949 86.25 43.3733 85.8153C43.1559 85.3807 42.8449 85.0376 42.44 84.7862C42.0395 84.5348 41.5665 84.4091 41.021 84.4091C40.4201 84.4091 39.9003 84.5582 39.4613 84.8565C39.0267 85.1506 38.6922 85.5341 38.4578 86.0071C38.2234 86.4801 38.1062 86.9872 38.1062 87.5284V88.3977C38.1062 89.1392 38.2341 89.7678 38.4897 90.2834C38.7497 90.7947 39.1098 91.1847 39.57 91.4531C40.0302 91.7173 40.565 91.8494 41.1744 91.8494C41.5707 91.8494 41.9287 91.794 42.2483 91.6832C42.5721 91.5682 42.8513 91.3977 43.0856 91.1719C43.32 90.9418 43.5011 90.6562 43.629 90.3153L45.0863 90.7244C44.9329 91.2188 44.6751 91.6534 44.3129 92.0284C43.9507 92.3991 43.5032 92.6889 42.9706 92.8977C42.4379 93.1023 41.8392 93.2045 41.1744 93.2045ZM48.6339 93.1023C48.3186 93.1023 48.048 92.9893 47.8221 92.7635C47.5963 92.5376 47.4834 92.267 47.4834 91.9517C47.4834 91.6364 47.5963 91.3658 47.8221 91.1399C48.048 90.9141 48.3186 90.8011 48.6339 90.8011C48.9493 90.8011 49.2199 90.9141 49.4457 91.1399C49.6716 91.3658 49.7845 91.6364 49.7845 91.9517C49.7845 92.1605 49.7312 92.3523 49.6247 92.527C49.5224 92.7017 49.3839 92.8423 49.2092 92.9489C49.0388 93.0511 48.847 93.1023 48.6339 93.1023ZM52.4915 83.1818H54V93.7159C54 94.321 53.8956 94.8452 53.6868 95.2884C53.4823 95.7315 53.1712 96.0746 52.7536 96.3175C52.3402 96.5604 51.8182 96.6818 51.1875 96.6818C51.1364 96.6818 51.0853 96.6818 51.0341 96.6818C50.983 96.6818 50.9319 96.6818 50.8807 96.6818V95.2756C50.9319 95.2756 50.9787 95.2756 51.0214 95.2756C51.064 95.2756 51.1108 95.2756 51.162 95.2756C51.6222 95.2756 51.9589 95.1392 52.1719 94.8665C52.385 94.598 52.4915 94.2145 52.4915 93.7159V83.1818ZM53.233 81.5455C52.939 81.5455 52.6854 81.4453 52.4723 81.245C52.2635 81.0447 52.1591 80.804 52.1591 80.5227C52.1591 80.2415 52.2635 80.0007 52.4723 79.8004C52.6854 79.6001 52.939 79.5 53.233 79.5C53.527 79.5 53.7785 79.6001 53.9873 79.8004C54.2003 80.0007 54.3069 80.2415 54.3069 80.5227C54.3069 80.804 54.2003 81.0447 53.9873 81.245C53.7785 81.4453 53.527 81.5455 53.233 81.5455ZM63.7176 85.3807L62.3624 85.7642C62.2772 85.5384 62.1515 85.3189 61.9853 85.1058C61.8234 84.8885 61.6018 84.7095 61.3205 84.5689C61.0393 84.4283 60.6792 84.358 60.2403 84.358C59.6394 84.358 59.1387 84.4964 58.7381 84.7734C58.3418 85.0462 58.1437 85.3935 58.1437 85.8153C58.1437 86.1903 58.2801 86.4865 58.5528 86.7038C58.8255 86.9212 59.2516 87.1023 59.8312 87.2472L61.2886 87.6051C62.1664 87.8182 62.8205 88.1442 63.2509 88.5831C63.6813 89.0178 63.8965 89.5781 63.8965 90.2642C63.8965 90.8267 63.7346 91.3295 63.4107 91.7727C63.0911 92.2159 62.6437 92.5653 62.0684 92.821C61.4931 93.0767 60.8241 93.2045 60.0613 93.2045C59.0599 93.2045 58.231 92.9872 57.5748 92.5526C56.9185 92.1179 56.5031 91.483 56.3283 90.6477L57.7602 90.2898C57.8965 90.8182 58.1543 91.2145 58.5336 91.4787C58.9171 91.7429 59.4178 91.875 60.0357 91.875C60.7389 91.875 61.2971 91.7259 61.7104 91.4276C62.1281 91.125 62.3369 90.7628 62.3369 90.3409C62.3369 90 62.2176 89.7145 61.9789 89.4844C61.7403 89.25 61.3738 89.0753 60.8795 88.9602L59.2431 88.5767C58.344 88.3636 57.6835 88.0334 57.2616 87.5859C56.844 87.1342 56.6352 86.5696 56.6352 85.892C56.6352 85.3381 56.7907 84.848 57.1018 84.4219C57.4171 83.9957 57.8454 83.6612 58.3866 83.4183C58.932 83.1754 59.5499 83.054 60.2403 83.054C61.2119 83.054 61.9747 83.267 62.5286 83.6932C63.0869 84.1193 63.4832 84.6818 63.7176 85.3807Z" fill="#4B5563"/>
</g>
<defs>
<clipPath id="clip0_2010_1462">
<rect width="65" height="100" fill="white" transform="translate(0.20459)"/>
</clipPath>
<clipPath id="clip1_2010_1462">
<rect width="56.32" height="64" fill="white" transform="translate(4.54468)"/>
</clipPath>
</defs>
</svg>
