<svg width="105" height="100" viewBox="0 0 105 100" fill="none" xmlns="http://www.w3.org/2000/svg">
<g clip-path="url(#clip0_2010_1491)">
<g clip-path="url(#clip1_2010_1491)">
<mask id="mask0_2010_1491" style="mask-type:luminance" maskUnits="userSpaceOnUse" x="0" y="0" width="105" height="63">
<path d="M0 0H104.727V62.8364H0V0Z" fill="white"/>
</mask>
<g mask="url(#mask0_2010_1491)">
<path fill-rule="evenodd" clip-rule="evenodd" d="M52.3636 0C38.4 0 29.6727 6.98182 26.1818 20.9455C31.4182 13.9636 37.5273 11.3455 44.5091 13.0909C48.4926 14.0858 51.3396 16.9775 54.4911 20.1755C59.6247 25.3867 65.567 31.4182 78.5454 31.4182C92.5091 31.4182 101.236 24.4364 104.727 10.4727C99.4909 17.4545 93.3818 20.0727 86.4 18.3273C82.4165 17.3324 79.5695 14.4407 76.4179 11.2427C71.2844 6.03151 65.3421 0 52.3636 0ZM26.1818 31.4182C12.2182 31.4182 3.49091 38.4 0 52.3636C5.23636 45.3818 11.3455 42.7636 18.3273 44.5091C22.3108 45.5059 25.1578 48.3956 28.3093 51.5937C33.4429 56.8048 39.3852 62.8364 52.3636 62.8364C66.3273 62.8364 75.0545 55.8545 78.5454 41.8909C73.3091 48.8727 67.2 51.4909 60.2182 49.7455C56.2347 48.7505 53.3876 45.8589 50.2361 42.6608C45.1025 37.4497 39.1602 31.4182 26.1818 31.4182Z" fill="#38BDF8"/>
</g>
</g>
<path d="M3.73284 81.3153V79.9091H13.551V81.3153H9.43455V93H7.84932V81.3153H3.73284ZM17.3463 93.2301C16.7241 93.2301 16.1595 93.1129 15.6524 92.8786C15.1453 92.6399 14.7426 92.2969 14.4443 91.8494C14.146 91.3977 13.9969 90.8523 13.9969 90.2131C13.9969 89.6506 14.1077 89.1946 14.3293 88.8452C14.5508 88.4915 14.847 88.2145 15.2178 88.0142C15.5885 87.8139 15.9976 87.6648 16.445 87.5668C16.8967 87.4645 17.3506 87.3835 17.8065 87.3239C18.4031 87.2472 18.8868 87.1896 19.2575 87.1513C19.6325 87.1087 19.9053 87.0384 20.0757 86.9403C20.2504 86.8423 20.3378 86.6719 20.3378 86.429V86.3778C20.3378 85.7472 20.1652 85.2571 19.82 84.9077C19.4791 84.5582 18.9614 84.3835 18.2668 84.3835C17.5466 84.3835 16.982 84.5412 16.5729 84.8565C16.1638 85.1719 15.8761 85.5085 15.7099 85.8665L14.2781 85.3551C14.5338 84.7585 14.8747 84.294 15.3008 83.9616C15.7312 83.625 16.2 83.3906 16.7071 83.2585C17.2185 83.1222 17.7213 83.054 18.2156 83.054C18.531 83.054 18.8932 83.0923 19.3023 83.169C19.7156 83.2415 20.1141 83.3928 20.4976 83.6229C20.8854 83.853 21.2071 84.2003 21.4628 84.6648C21.7185 85.1293 21.8463 85.7514 21.8463 86.5312V93H20.3378V91.6705H20.2611C20.1588 91.8835 19.9883 92.1115 19.7497 92.3544C19.5111 92.5973 19.1936 92.804 18.7973 92.9744C18.401 93.1449 17.9173 93.2301 17.3463 93.2301ZM17.5764 91.875C18.173 91.875 18.6758 91.7578 19.0849 91.5234C19.4983 91.2891 19.8094 90.9865 20.0182 90.6158C20.2312 90.245 20.3378 89.8551 20.3378 89.446V88.0653C20.2739 88.142 20.1332 88.2124 19.9159 88.2763C19.7028 88.3359 19.4557 88.3892 19.1744 88.4361C18.8974 88.4787 18.6268 88.517 18.3626 88.5511C18.1027 88.581 17.8918 88.6065 17.7298 88.6278C17.3378 88.679 16.9713 88.7621 16.6304 88.8771C16.2937 88.9879 16.021 89.1562 15.8122 89.3821C15.6077 89.6037 15.5054 89.9062 15.5054 90.2898C15.5054 90.8139 15.6993 91.2102 16.0871 91.4787C16.4791 91.7429 16.9756 91.875 17.5764 91.875ZM24.5997 93V83.1818H26.1082V93H24.5997ZM25.3667 81.5455C25.0727 81.5455 24.8191 81.4453 24.6061 81.245C24.3973 81.0447 24.2929 80.804 24.2929 80.5227C24.2929 80.2415 24.3973 80.0007 24.6061 79.8004C24.8191 79.6001 25.0727 79.5 25.3667 79.5C25.6608 79.5 25.9122 79.6001 26.121 79.8004C26.3341 80.0007 26.4406 80.2415 26.4406 80.5227C26.4406 80.804 26.3341 81.0447 26.121 81.245C25.9122 81.4453 25.6608 81.5455 25.3667 81.5455ZM30.3797 79.9091V93H28.8712V79.9091H30.3797ZM35.3671 93L32.3756 83.1818H33.9608L36.083 90.6989H36.1853L38.2818 83.1818H39.8926L41.9637 90.6733H42.0659L44.1881 83.1818H45.7733L42.7818 93H41.2989L39.1512 85.4574H38.9978L36.85 93H35.3671ZM47.7676 93V83.1818H49.2762V93H47.7676ZM48.5347 81.5455C48.2407 81.5455 47.9871 81.4453 47.774 81.245C47.5652 81.0447 47.4608 80.804 47.4608 80.5227C47.4608 80.2415 47.5652 80.0007 47.774 79.8004C47.9871 79.6001 48.2407 79.5 48.5347 79.5C48.8287 79.5 49.0801 79.6001 49.289 79.8004C49.502 80.0007 49.6086 80.2415 49.6086 80.5227C49.6086 80.804 49.502 81.0447 49.289 81.245C49.0801 81.4453 48.8287 81.5455 48.5347 81.5455ZM53.5477 87.0938V93H52.0391V83.1818H53.4965V84.7159H53.6244C53.8545 84.2173 54.2039 83.8168 54.6727 83.5142C55.1414 83.2074 55.7465 83.054 56.488 83.054C57.1528 83.054 57.7344 83.1903 58.233 83.4631C58.7316 83.7315 59.1194 84.1406 59.3964 84.6903C59.6734 85.2358 59.8119 85.9261 59.8119 86.7614V93H58.3033V86.8636C58.3033 86.0923 58.103 85.4915 57.7025 85.0611C57.3019 84.6264 56.7522 84.4091 56.0533 84.4091C55.5718 84.4091 55.1414 84.5135 54.7621 84.7223C54.3871 84.9311 54.091 85.2358 53.8736 85.6364C53.6563 86.0369 53.5477 86.5227 53.5477 87.0938ZM66.2758 93.2045C65.4576 93.2045 64.7353 92.9979 64.1089 92.5845C63.4825 92.1669 62.9924 91.5788 62.6387 90.8203C62.285 90.0575 62.1082 89.1562 62.1082 88.1165C62.1082 87.0852 62.285 86.1903 62.6387 85.4318C62.9924 84.6733 63.4846 84.0874 64.1153 83.674C64.746 83.2607 65.4747 83.054 66.3014 83.054C66.9406 83.054 67.4456 83.1605 67.8163 83.3736C68.1913 83.5824 68.4768 83.821 68.6728 84.0895C68.8731 84.3537 69.0287 84.571 69.1394 84.7415H69.2673V79.9091H70.7758V93H69.3184V91.4915H69.1394C69.0287 91.6705 68.871 91.8963 68.6664 92.169C68.4619 92.4375 68.17 92.6783 67.7907 92.8913C67.4115 93.1001 66.9065 93.2045 66.2758 93.2045ZM66.4804 91.8494C67.0855 91.8494 67.5968 91.6918 68.0144 91.3764C68.4321 91.0568 68.7495 90.6158 68.9669 90.0533C69.1842 89.4865 69.2929 88.8324 69.2929 88.0909C69.2929 87.358 69.1863 86.7166 68.9733 86.1669C68.7602 85.6129 68.4448 85.1825 68.0272 84.8757C67.6096 84.5646 67.094 84.4091 66.4804 84.4091C65.8412 84.4091 65.3085 84.5732 64.8823 84.9013C64.4605 85.2251 64.143 85.6662 63.9299 86.2244C63.7211 86.7784 63.6167 87.4006 63.6167 88.0909C63.6167 88.7898 63.7233 89.4247 63.9363 89.9957C64.1537 90.5625 64.4733 91.0142 64.8951 91.3509C65.3213 91.6832 65.8497 91.8494 66.4804 91.8494ZM77.7368 93.2045C76.8163 93.2045 76.0237 92.9872 75.3589 92.5526C74.6941 92.1179 74.1828 91.5192 73.8248 90.7564C73.4669 89.9936 73.2879 89.1222 73.2879 88.142C73.2879 87.1449 73.4711 86.2649 73.8376 85.5021C74.2083 84.7351 74.724 84.1364 75.3845 83.706C76.0492 83.2713 76.8248 83.054 77.7112 83.054C78.4015 83.054 79.0237 83.1818 79.5777 83.4375C80.1316 83.6932 80.5855 84.0511 80.9392 84.5114C81.2929 84.9716 81.5123 85.5085 81.5975 86.1222H80.089C79.974 85.6747 79.7183 85.2784 79.322 84.9332C78.9299 84.5838 78.4015 84.4091 77.7368 84.4091C77.1487 84.4091 76.6331 84.5625 76.1899 84.8693C75.751 85.1719 75.4079 85.6001 75.1608 86.1541C74.9179 86.7038 74.7964 87.3494 74.7964 88.0909C74.7964 88.8494 74.9157 89.5099 75.1544 90.0724C75.3973 90.6349 75.7382 91.0717 76.1771 91.3828C76.6203 91.6939 77.1402 91.8494 77.7368 91.8494C78.1288 91.8494 78.4846 91.7812 78.8042 91.6449C79.1238 91.5085 79.3944 91.3125 79.616 91.0568C79.8376 90.8011 79.9953 90.4943 80.089 90.1364H81.5975C81.5123 90.7159 81.3014 91.2379 80.9647 91.7024C80.6323 92.1626 80.1913 92.5291 79.6416 92.8018C79.0961 93.0703 78.4612 93.2045 77.7368 93.2045ZM90.7573 85.3807L89.4022 85.7642C89.317 85.5384 89.1913 85.3189 89.0251 85.1058C88.8632 84.8885 88.6416 84.7095 88.3603 84.5689C88.0791 84.4283 87.719 84.358 87.2801 84.358C86.6792 84.358 86.1785 84.4964 85.7779 84.7734C85.3816 85.0462 85.1835 85.3935 85.1835 85.8153C85.1835 86.1903 85.3198 86.4865 85.5926 86.7038C85.8653 86.9212 86.2914 87.1023 86.871 87.2472L88.3284 87.6051C89.2062 87.8182 89.8603 88.1442 90.2907 88.5831C90.7211 89.0178 90.9363 89.5781 90.9363 90.2642C90.9363 90.8267 90.7744 91.3295 90.4505 91.7727C90.1309 92.2159 89.6835 92.5653 89.1082 92.821C88.5329 93.0767 87.8639 93.2045 87.1011 93.2045C86.0997 93.2045 85.2708 92.9872 84.6146 92.5526C83.9583 92.1179 83.5429 91.483 83.3681 90.6477L84.8 90.2898C84.9363 90.8182 85.1941 91.2145 85.5734 91.4787C85.9569 91.7429 86.4576 91.875 87.0755 91.875C87.7787 91.875 88.3369 91.7259 88.7502 91.4276C89.1679 91.125 89.3767 90.7628 89.3767 90.3409C89.3767 90 89.2573 89.7145 89.0187 89.4844C88.7801 89.25 88.4136 89.0753 87.9193 88.9602L86.2829 88.5767C85.3838 88.3636 84.7233 88.0334 84.3014 87.5859C83.8838 87.1342 83.675 86.5696 83.675 85.892C83.675 85.3381 83.8305 84.848 84.1416 84.4219C84.4569 83.9957 84.8852 83.6612 85.4264 83.4183C85.9718 83.1754 86.5897 83.054 87.2801 83.054C88.2517 83.054 89.0144 83.267 89.5684 83.6932C90.1267 84.1193 90.523 84.6818 90.7573 85.3807ZM100.162 85.3807L98.8065 85.7642C98.7213 85.5384 98.5956 85.3189 98.4294 85.1058C98.2675 84.8885 98.0459 84.7095 97.7646 84.5689C97.4834 84.4283 97.1233 84.358 96.6844 84.358C96.0835 84.358 95.5828 84.4964 95.1822 84.7734C94.7859 85.0462 94.5878 85.3935 94.5878 85.8153C94.5878 86.1903 94.7241 86.4865 94.9969 86.7038C95.2696 86.9212 95.6957 87.1023 96.2753 87.2472L97.7327 87.6051C98.6105 87.8182 99.2646 88.1442 99.695 88.5831C100.125 89.0178 100.341 89.5781 100.341 90.2642C100.341 90.8267 100.179 91.3295 99.8548 91.7727C99.5352 92.2159 99.0878 92.5653 98.5125 92.821C97.9372 93.0767 97.2682 93.2045 96.5054 93.2045C95.504 93.2045 94.6751 92.9872 94.0189 92.5526C93.3626 92.1179 92.9472 91.483 92.7724 90.6477L94.2043 90.2898C94.3406 90.8182 94.5984 91.2145 94.9777 91.4787C95.3612 91.7429 95.8619 91.875 96.4798 91.875C97.183 91.875 97.7412 91.7259 98.1545 91.4276C98.5722 91.125 98.781 90.7628 98.781 90.3409C98.781 90 98.6616 89.7145 98.423 89.4844C98.1844 89.25 97.8179 89.0753 97.3236 88.9602L95.6872 88.5767C94.7881 88.3636 94.1276 88.0334 93.7057 87.5859C93.2881 87.1342 93.0793 86.5696 93.0793 85.892C93.0793 85.3381 93.2348 84.848 93.5459 84.4219C93.8612 83.9957 94.2895 83.6612 94.8307 83.4183C95.3761 83.1754 95.994 83.054 96.6844 83.054C97.656 83.054 98.4187 83.267 98.9727 83.6932C99.531 84.1193 99.9273 84.6818 100.162 85.3807Z" fill="#4B5563"/>
</g>
<defs>
<clipPath id="clip0_2010_1491">
<rect width="104.727" height="100" fill="white"/>
</clipPath>
<clipPath id="clip1_2010_1491">
<rect width="104.727" height="64" fill="white"/>
</clipPath>
</defs>
</svg>
